<svg width="16" height="10" viewBox="0 0 16 10" fill="none" xmlns="http://www.w3.org/2000/svg">
<path d="M15.6651 0.833655C15.8795 1.04798 16 1.33864 16 1.6417C16 1.94476 15.8795 2.23541 15.6651 2.44974L8.80182 9.30725C8.58731 9.52151 8.29641 9.64188 7.99309 9.64188C7.68978 9.64188 7.39888 9.52151 7.18437 9.30725L0.3211 2.44974C0.112733 2.23418 -0.00256348 1.94548 4.29153e-05 1.64581C0.00264931 1.34614 0.122951 1.05948 0.335034 0.847577C0.547119 0.63567 0.834019 0.515471 1.13394 0.512867C1.43386 0.510263 1.72281 0.625463 1.93855 0.833655L7.99309 6.88312L14.0476 0.833655C14.2622 0.61939 14.5531 0.499023 14.8564 0.499023C15.1597 0.499023 15.4506 0.61939 15.6651 0.833655Z" fill="white"/>
</svg>
