<svg width="22" height="16" viewBox="0 0 22 16" fill="none" xmlns="http://www.w3.org/2000/svg">
<path d="M0.675781 1.75C0.675781 1.05964 1.23543 0.5 1.92578 0.5H20.7508C21.4411 0.5 22.0008 1.05964 22.0008 1.75C22.0008 2.44036 21.4411 3 20.7508 3H1.92578C1.23542 3 0.675781 2.44036 0.675781 1.75Z" fill="white"/>
<path d="M0.675781 8C0.675781 7.30964 1.23543 6.75 1.92578 6.75H14.3508C15.0411 6.75 15.6008 7.30964 15.6008 8C15.6008 8.69036 15.0411 9.25 14.3508 9.25H1.92578C1.23543 9.25 0.675781 8.69036 0.675781 8Z" fill="white"/>
<path d="M0.675781 14.25C0.675781 13.5596 1.23543 13 1.92578 13H20.7508C21.4411 13 22.0008 13.5596 22.0008 14.25C22.0008 14.9404 21.4411 15.5 20.7508 15.5H1.92578C1.23542 15.5 0.675781 14.9404 0.675781 14.25Z" fill="white"/>
</svg>
