<svg width="15" height="18" viewBox="0 0 15 18" fill="none" xmlns="http://www.w3.org/2000/svg">
<path fill-rule="evenodd" clip-rule="evenodd" d="M5.13115 4.68607C4.60153 4.7573 4.35646 4.88287 4.18988 5.04963C4.02312 5.21621 3.89694 5.46188 3.82572 5.99151C3.7516 6.54265 3.75 7.27865 3.75 8.36035V12.1104C3.75 13.1921 3.7516 13.9281 3.82572 14.4792C3.89694 15.0088 4.02251 15.2539 4.18928 15.4205C4.35586 15.5872 4.60153 15.7134 5.13115 15.7846C5.6823 15.8588 6.4183 15.8604 7.5 15.8604H9.75C10.8317 15.8604 11.5677 15.8588 12.1188 15.7846C12.6485 15.7134 12.8935 15.5878 13.0601 15.4211C13.2269 15.2545 13.3531 15.0088 13.4243 14.4792C13.4984 13.9281 13.5 13.1921 13.5 12.1104V8.36035C13.5 7.27865 13.4984 6.54265 13.4243 5.99151C13.3531 5.46188 13.2275 5.21681 13.0607 5.05024C12.8941 4.88347 12.6485 4.7573 12.1188 4.68607C11.5677 4.61195 10.8317 4.61035 9.75 4.61035H7.5C6.4183 4.61035 5.6823 4.61195 5.13115 4.68607ZM7.44708 3.11035H9.80293C10.8184 3.11033 11.6559 3.1103 12.3188 3.19945C13.0145 3.29302 13.6292 3.49701 14.1211 3.98927C14.6133 4.48115 14.8173 5.09585 14.9109 5.79158C15.0001 6.45445 15 7.29199 15 8.30743V12.1633C15 13.1787 15.0001 14.0163 14.9109 14.6791C14.8173 15.3749 14.6133 15.9896 14.1211 16.4814C13.6292 16.9737 13.0145 17.1777 12.3188 17.2713C11.6559 17.3604 10.8184 17.3604 9.80293 17.3604H7.44708C6.43164 17.3604 5.5941 17.3604 4.93123 17.2713C4.2355 17.1777 3.62079 16.9737 3.12892 16.4814C2.63666 15.9896 2.43267 15.3749 2.3391 14.6791C2.24995 14.0163 2.24997 13.1787 2.25 12.1633V8.30743C2.24997 7.29199 2.24995 6.45445 2.3391 5.79158C2.43267 5.09585 2.63666 4.48115 3.12892 3.98927C3.62079 3.49701 4.2355 3.29302 4.93122 3.19945C5.5941 3.1103 6.43164 3.11033 7.44708 3.11035Z" fill="black"/>
<path opacity="0.5" fill-rule="evenodd" clip-rule="evenodd" d="M3.55822 2.46353C2.82446 2.56222 2.43606 2.74272 2.15956 3.01946C1.88282 3.29596 1.70187 3.68481 1.60318 4.41858C1.5016 5.1739 1.5 6.17502 1.5 7.61035V12.1104C1.5 12.5082 1.65804 12.8897 1.93934 13.171C2.22065 13.4523 2.60218 13.6104 3 13.6104V15.1104C2.20435 15.1104 1.44129 14.7943 0.878681 14.2317C0.316072 13.6691 1.14244e-06 12.906 1.14244e-06 12.1104L5.46392e-07 7.55546C-2.00768e-05 6.18797 -3.6709e-05 5.08561 0.116569 4.21863C0.237616 3.31863 0.496572 2.56073 1.09867 1.95902C1.70038 1.35692 2.45828 1.09797 3.35828 0.97692C4.22526 0.860315 5.32762 0.860331 6.69511 0.860352L9.75 0.860353C10.5457 0.860353 11.3087 1.17642 11.8713 1.73903C12.4339 2.30164 12.75 3.0647 12.75 3.86035H11.25C11.25 3.46253 11.092 3.081 10.8107 2.79969C10.5294 2.51839 10.1478 2.36035 9.75 2.36035H6.75C5.31467 2.36035 4.31355 2.36195 3.55822 2.46353Z" fill="black"/>
</svg>
