<svg width="66" height="66" viewBox="0 0 66 66" fill="none" xmlns="http://www.w3.org/2000/svg">
<path fill-rule="evenodd" clip-rule="evenodd" d="M39.1411 26.7186C39.7121 27.2896 39.7121 28.2155 39.1411 28.7865L28.591 39.3366C28.02 39.9077 27.0941 39.9077 26.5231 39.3367C25.952 38.7656 25.952 37.8397 26.523 37.2687L37.0731 26.7186C37.6441 26.1475 38.57 26.1475 39.1411 26.7186Z" fill="url(#paint0_linear_52_1331)"/>
<path d="M26.2566 23.593C24.7402 23.593 23.527 24.8278 23.527 26.3226C23.527 27.839 24.7618 29.0522 26.2566 29.0522C27.7514 29.0522 28.9862 27.8174 28.9862 26.3226C29.0078 24.8278 27.773 23.593 26.2566 23.593Z" fill="url(#paint1_linear_52_1331)"/>
<path d="M39.6016 36.916C38.0852 36.916 36.8721 38.1508 36.8721 39.6456C36.8721 41.162 38.1068 42.3752 39.6016 42.3752C41.0964 42.3752 42.3312 41.1404 42.3312 39.6456C42.3312 38.1508 41.1181 36.916 39.6016 36.916Z" fill="url(#paint2_linear_52_1331)"/>
<path fill-rule="evenodd" clip-rule="evenodd" d="M11.4274 32.995C11.4274 21.1175 21.0507 11.4941 32.9283 11.4941C44.8058 11.4941 54.4291 21.1175 54.4291 32.995C54.4291 35.9691 53.8035 38.8137 52.7141 41.3907L54.3054 52.2365C54.3725 52.6941 54.2192 53.1565 53.8919 53.4834C53.5647 53.8102 53.102 53.963 52.6445 53.8953L42.2649 52.3591C39.4444 53.7158 36.2716 54.4959 32.9283 54.4959C21.0507 54.4959 11.4274 44.8726 11.4274 32.995ZM49.8011 41.6831C49.6889 41.3413 49.7054 40.9653 49.8561 40.629C50.9031 38.2933 51.5046 35.7018 51.5046 32.995C51.5046 22.7326 43.1906 14.4187 32.9283 14.4187C22.6659 14.4187 14.352 22.7326 14.352 32.995C14.352 43.2574 22.6659 51.5714 32.9283 51.5714C35.9586 51.5714 38.8305 50.8291 41.3647 49.5419C41.6349 49.4046 41.9411 49.3547 42.241 49.3991L51.1261 50.7141L49.8011 41.6831Z" fill="url(#paint3_linear_52_1331)"/>
<defs>
<linearGradient id="paint0_linear_52_1331" x1="26.0948" y1="30.2888" x2="39.5964" y2="30.3402" gradientUnits="userSpaceOnUse">
<stop stop-color="#1AA72A"/>
<stop offset="1" stop-color="#69D645"/>
</linearGradient>
<linearGradient id="paint1_linear_52_1331" x1="23.527" y1="25.213" x2="28.9974" y2="25.2338" gradientUnits="userSpaceOnUse">
<stop stop-color="#1AA72A"/>
<stop offset="1" stop-color="#69D645"/>
</linearGradient>
<linearGradient id="paint2_linear_52_1331" x1="36.8721" y1="38.536" x2="42.3421" y2="38.5568" gradientUnits="userSpaceOnUse">
<stop stop-color="#1AA72A"/>
<stop offset="1" stop-color="#69D645"/>
</linearGradient>
<linearGradient id="paint3_linear_52_1331" x1="11.4274" y1="24.2546" x2="54.5155" y2="24.4186" gradientUnits="userSpaceOnUse">
<stop stop-color="#1AA72A"/>
<stop offset="1" stop-color="#69D645"/>
</linearGradient>
</defs>
</svg>
