<svg width="65" height="66" viewBox="0 0 65 66" fill="none" xmlns="http://www.w3.org/2000/svg">
<mask id="mask0_52_1321" style="mask-type:luminance" maskUnits="userSpaceOnUse" x="13" y="10" width="39" height="46">
<path d="M52 10.7144H13V55.2858H52V10.7144Z" fill="white"/>
</mask>
<g mask="url(#mask0_52_1321)">
<path d="M17.1786 12.8036C17.1786 11.6458 16.2471 10.7144 15.0893 10.7144C13.9315 10.7144 13 11.6458 13 12.8036V16.2858V41.2266V45.5358V53.1965C13 54.3542 13.9315 55.2858 15.0893 55.2858C16.2471 55.2858 17.1786 54.3542 17.1786 53.1965V44.4911L24.1689 42.7413C27.7469 41.8447 31.5337 42.2626 34.833 43.9078C38.6808 45.8317 43.1467 46.0667 47.1685 44.5521L50.1893 43.4203C51.2775 43.0112 52 41.9753 52 40.8088V16.4685C52 14.4663 49.8933 13.1605 48.1 14.0572L47.2643 14.4751C43.2337 16.4947 38.4893 16.4947 34.4587 14.4751C31.4031 12.9429 27.8949 12.5598 24.5781 13.3869L17.1786 15.2411V12.8036ZM17.1786 19.5503L25.588 17.4435C27.9384 16.8603 30.4194 17.1302 32.587 18.2096C37.3663 20.5949 42.9203 20.7951 47.8214 18.8016V39.8511L45.6973 40.6433C42.7636 41.7402 39.4991 41.5748 36.696 40.1733C32.5 38.0753 27.7033 37.5529 23.1505 38.6846L17.1786 40.182V19.5503Z" fill="url(#paint0_linear_52_1321)"/>
</g>
<defs>
<linearGradient id="paint0_linear_52_1321" x1="13" y1="23.9406" x2="52.0785" y2="24.0707" gradientUnits="userSpaceOnUse">
<stop stop-color="#1AA72A"/>
<stop offset="1" stop-color="#69D645"/>
</linearGradient>
</defs>
</svg>
