<svg width="66" height="66" viewBox="0 0 66 66" fill="none" xmlns="http://www.w3.org/2000/svg">
<path d="M18.4951 10.2485C15.3585 10.2485 12.8084 12.7986 12.8084 15.9352V50.055C12.8084 53.1915 15.3585 55.7416 18.4951 55.7416H51.1932C51.9751 55.7416 52.6149 55.1018 52.6149 54.3199C52.6149 53.538 51.9751 52.8983 51.1932 52.8983H49.7716V46.9718C51.4243 46.3853 52.6149 44.8037 52.6149 42.9467V14.5135C52.6149 12.1589 50.7046 10.2485 48.3499 10.2485H18.4951ZM46.9282 47.2117V52.8983H18.4951C16.9224 52.8983 15.6518 51.6277 15.6518 50.055C15.6518 48.4823 16.9224 47.2117 18.4951 47.2117H46.9282ZM18.4951 44.3683C17.4555 44.3683 16.487 44.6438 15.6518 45.1325V15.9352C15.6518 14.3625 16.9224 13.0919 18.4951 13.0919H21.3384V44.3683H18.4951ZM24.1817 44.3683V13.0919H48.3499C49.1318 13.0919 49.7716 13.7316 49.7716 14.5135V42.9467C49.7716 43.7286 49.1318 44.3683 48.3499 44.3683H24.1817ZM28.4467 23.0435C28.4467 23.8254 29.0864 24.4651 29.8683 24.4651H44.0849C44.8668 24.4651 45.5066 23.8254 45.5066 23.0435C45.5066 22.2616 44.8668 21.6218 44.0849 21.6218H29.8683C29.0864 21.6218 28.4467 22.2616 28.4467 23.0435ZM28.4467 31.5734C28.4467 32.3553 29.0864 32.9951 29.8683 32.9951H44.0849C44.8668 32.9951 45.5066 32.3553 45.5066 31.5734C45.5066 30.7915 44.8668 30.1518 44.0849 30.1518H29.8683C29.0864 30.1518 28.4467 30.7915 28.4467 31.5734Z" fill="url(#paint0_linear_52_1314)"/>
<defs>
<linearGradient id="paint0_linear_52_1314" x1="12.8084" y1="23.7483" x2="52.695" y2="23.8811" gradientUnits="userSpaceOnUse">
<stop stop-color="#1AA72A"/>
<stop offset="1" stop-color="#69D645"/>
</linearGradient>
</defs>
</svg>
