<svg width="65" height="66" viewBox="0 0 65 66" fill="none" xmlns="http://www.w3.org/2000/svg">
<path d="M48.1406 27.3125C43.9817 27.3125 40.2048 28.9299 37.4055 31.5781H28.2344V11.7252C28.2344 10.9254 28.8564 10.25 29.6563 10.25C39.6982 10.25 48.0073 17.6882 49.367 27.357C48.9582 27.3214 48.5494 27.3125 48.1406 27.3125ZM28.2344 35.8438H34.2063C33.5308 37.1679 33.0332 38.5986 32.7577 40.1094H23.9688C21.6138 40.1094 19.7031 38.1987 19.7031 35.8438V18.328C13.0736 20.6741 8.32813 26.9926 8.32813 34.4219C8.32813 43.8418 15.9707 51.4844 25.3906 51.4844C28.4565 51.4844 31.3359 50.6757 33.8241 49.2627C34.4018 50.5779 35.1571 51.8043 36.0636 52.8973C32.9265 54.7103 29.283 55.75 25.3906 55.75C13.6157 55.75 4.0625 46.2057 4.0625 34.4219C4.0625 24.1577 11.3052 15.5909 20.965 13.5558C22.5735 13.2182 23.9688 14.5334 23.9688 16.1774V31.5781V35.8438H28.2344ZM35.3438 42.9531C35.3438 39.5591 36.692 36.3043 39.0918 33.9043C41.4918 31.5045 44.7467 30.1562 48.1406 30.1562C51.5346 30.1562 54.7895 31.5045 57.1894 33.9043C59.5893 36.3043 60.9375 39.5591 60.9375 42.9531C60.9375 46.3471 59.5893 49.602 57.1894 52.0019C54.7895 54.4018 51.5346 55.75 48.1406 55.75C44.7467 55.75 41.4918 54.4018 39.0918 52.0019C36.692 49.602 35.3438 46.3471 35.3438 42.9531ZM46.0789 40.0561C46.1323 39.9761 46.2389 39.8695 46.4521 39.7539C46.9054 39.514 47.563 39.3896 48.114 39.3985C48.8427 39.4073 49.6336 39.5584 50.4601 39.7628C51.2243 39.9494 51.9975 39.4873 52.1841 38.7231C52.3707 37.9588 51.9086 37.1857 51.1443 36.999C50.6467 36.8746 50.1135 36.7591 49.5536 36.6702V35.8438C49.5536 35.0617 48.9138 34.4219 48.1317 34.4219C47.3497 34.4219 46.7098 35.0617 46.7098 35.8438V36.688C46.1677 36.7946 45.6168 36.9723 45.1103 37.2479C44.0616 37.8077 43.0663 38.883 43.1729 40.5537C43.2618 41.9756 44.2127 42.8021 45.0925 43.282C45.8745 43.6996 46.8432 43.9751 47.6341 44.1973L47.794 44.2417C48.7094 44.4994 49.3848 44.7038 49.8558 44.9793C50.2557 45.2192 50.2735 45.3525 50.2735 45.4769C50.2823 45.6902 50.229 45.8058 50.1846 45.8768C50.1313 45.9657 50.0246 46.0723 49.8291 46.1701C49.4114 46.3923 48.7805 46.5078 48.1851 46.49C47.3408 46.4634 46.541 46.2146 45.528 45.8857C45.3591 45.8324 45.1902 45.7791 45.0125 45.7258C44.266 45.4948 43.4662 45.9124 43.2351 46.6589C43.0041 47.4054 43.4218 48.2052 44.1683 48.4362C44.3104 48.4807 44.4615 48.5251 44.6126 48.5784C45.2347 48.7828 45.9545 49.005 46.7188 49.1649V50.178C46.7188 50.9601 47.3586 51.5999 48.1406 51.5999C48.9226 51.5999 49.5625 50.9601 49.5625 50.178V49.236C50.1135 49.1383 50.6734 48.9606 51.1888 48.6851C52.264 48.1074 53.1705 47.0232 53.1172 45.4058C53.0728 43.9662 52.2018 43.0686 51.2954 42.5354C50.4601 42.0378 49.4114 41.7445 48.585 41.5135H48.5672C47.643 41.2558 46.9409 41.0514 46.4433 40.7848C46.0167 40.5537 46.0167 40.4293 46.0167 40.3848V40.376C46.0078 40.2071 46.0433 40.1183 46.0878 40.0561H46.0789Z" fill="url(#paint0_linear_52_1300)"/>
<defs>
<linearGradient id="paint0_linear_52_1300" x1="4.0625" y1="23.7518" x2="61.0513" y2="24.0229" gradientUnits="userSpaceOnUse">
<stop stop-color="#1AA72A"/>
<stop offset="1" stop-color="#69D645"/>
</linearGradient>
</defs>
</svg>
