<svg width="66" height="66" viewBox="0 0 66 66" fill="none" xmlns="http://www.w3.org/2000/svg">
<path fill-rule="evenodd" clip-rule="evenodd" d="M31.2098 9.9731C28.8809 12.0672 25.0829 16.0292 22.4899 21.5515C21.9447 22.7199 21.4552 23.9321 21.044 25.2159C20.7059 26.3087 20.4207 27.3982 20.1876 28.5114C18.9948 34.38 20.3274 40.5484 22.2574 46.4457L22.2596 46.4526C22.4396 47.0117 22.6045 47.5597 22.7652 48.0939C23.3337 49.9833 23.8502 51.7 24.7979 53.1249C24.873 53.2265 24.9476 53.335 25.0215 53.4647C25.4771 54.0246 26.1532 54.3473 26.8793 54.3473H38.577C39.3166 54.3473 40.0051 54.0124 40.4607 53.4329L40.4954 53.3747C40.5301 53.3169 40.5845 53.2281 40.6562 53.1289C41.2349 52.2594 41.6756 51.2215 42.0714 50.0631C42.2702 49.4814 42.4522 48.8861 42.636 48.2761C42.6604 48.195 42.6849 48.1134 42.7096 48.0316C42.8675 47.5062 43.0292 46.9685 43.1987 46.4478L43.2013 46.4401C45.1549 40.5523 46.4625 34.3818 45.2692 28.5112C45.0361 27.3982 44.7508 26.3087 44.4128 25.2159C44.0016 23.9321 43.5121 22.7199 42.9669 21.5515C40.3711 16.0232 36.5687 12.0341 34.2498 9.97564C33.8171 9.5933 33.2698 9.39575 32.7284 9.39575C32.1882 9.39575 31.6421 9.5924 31.2098 9.9731ZM29.2682 7.78604C30.2434 6.92338 31.4829 6.47119 32.7284 6.47119C33.9738 6.47119 35.2134 6.92337 36.1886 7.78604L36.1904 7.78768C38.6916 10.0078 42.7951 14.304 45.6149 20.31L45.6163 20.3131C46.2072 21.5794 46.7455 22.91 47.2003 24.3311L47.2046 24.3444C47.5692 25.5226 47.8789 26.7042 48.1326 27.9162L48.1342 27.9242C49.4847 34.5615 47.9771 41.3321 45.9784 47.3569C45.8204 47.8423 45.6697 48.3435 45.5113 48.8701C45.4865 48.9527 45.4615 49.0359 45.4362 49.1197C45.2519 49.7317 45.0565 50.3718 44.8389 51.0087C44.4057 52.2765 43.8626 53.5994 43.0683 54.783C43.0541 54.8042 43.0393 54.825 43.024 54.8454C43.0284 54.8395 43.0248 54.8434 43.0029 54.8798L42.9594 54.9529C42.9414 54.9828 42.914 55.0279 42.8813 55.0769C42.8663 55.0995 42.8506 55.1217 42.8343 55.1434C41.827 56.4864 40.2564 57.2718 38.5775 57.2718H26.8798C25.2009 57.2718 23.6297 56.4864 22.6225 55.1434C22.5698 55.0731 22.5235 54.9982 22.4842 54.9197C22.4818 54.9148 22.4806 54.9127 22.4804 54.9122L22.4778 54.9081C22.4738 54.9019 22.4628 54.8855 22.4328 54.8454C22.4175 54.825 22.4027 54.8042 22.3885 54.783C21.1564 52.9469 20.4725 50.6553 19.8901 48.7039C19.7485 48.2293 19.6129 47.7748 19.4768 47.3519C17.5084 41.3366 15.9717 34.5638 17.3226 27.9242L17.3242 27.9162C17.5779 26.7043 17.8876 25.5226 18.2523 24.3444L18.2564 24.331C18.7112 22.91 19.2496 21.5794 19.8405 20.3131L19.8419 20.31C22.663 14.3012 26.7681 10.0332 29.2596 7.79376L29.2682 7.78604Z" fill="url(#paint0_linear_52_1341)"/>
<path fill-rule="evenodd" clip-rule="evenodd" d="M48.4787 38.2492C48.2986 37.6457 47.7393 37.2058 47.0773 37.2058C46.323 37.2058 45.7022 37.7768 45.6234 38.5102C45.5237 38.9543 45.6357 39.4281 45.9412 39.7836L50.559 45.1575C51.0264 45.7353 51.2065 46.4236 51.0618 47.1151L49.3281 55.7023C49.2795 55.9291 49.1781 56.1085 49.022 56.2646C48.9421 56.3445 48.8204 56.4349 48.6146 56.5358C48.2306 56.6544 47.872 56.5921 47.5685 56.3673L42.7188 52.7909C42.0689 52.3116 41.1534 52.4499 40.6741 53.0999C40.1948 53.7499 40.3331 54.6654 40.9831 55.1447L45.8278 58.7174C45.8283 58.7177 45.8287 58.718 45.8292 58.7184C46.9722 59.5644 48.379 59.7239 49.6514 59.2725C49.6934 59.2576 49.7347 59.2408 49.7752 59.2221C50.2336 59.0105 50.6904 58.7321 51.0899 58.3326C51.6368 57.7857 52.0225 57.1 52.191 56.3L53.9255 47.7088C54.265 46.0782 53.7989 44.4989 52.8125 43.2933C52.8051 43.2842 52.7975 43.2752 52.7898 43.2663L48.4787 38.2492ZM45.6149 38.6818C45.6148 38.6816 45.6148 38.6784 45.615 38.673Z" fill="url(#paint1_linear_52_1341)"/>
<path fill-rule="evenodd" clip-rule="evenodd" d="M19.3264 37.6941C19.9389 38.2204 20.0088 39.1436 19.4824 39.7561L14.8646 45.1301C14.3974 45.708 14.2186 46.4201 14.3602 47.0809L14.3637 47.0979L16.0968 55.682L16.1006 55.7019C16.1618 56.0279 16.4049 56.3396 16.7781 56.4984C17.1737 56.6302 17.5433 56.5707 17.8549 56.3398L17.8574 56.338L22.7046 52.7635C23.3546 52.2842 24.2701 52.4226 24.7494 53.0726C25.2287 53.7225 25.0903 54.638 24.4404 55.1173L19.5956 58.6899C19.5952 58.6903 19.5947 58.6906 19.5942 58.691C18.4512 59.5369 17.0445 59.6965 15.7722 59.245C15.7541 59.2386 15.736 59.2318 15.7181 59.2246C14.4846 58.7312 13.4938 57.646 13.2283 56.2519L11.4986 47.6845C11.1575 46.0784 11.6252 44.4709 12.611 43.266C12.6185 43.2569 12.626 43.2479 12.6337 43.239L17.2643 37.8501C17.7906 37.2376 18.7139 37.1677 19.3264 37.6941Z" fill="url(#paint2_linear_52_1341)"/>
<path fill-rule="evenodd" clip-rule="evenodd" d="M25.9025 27.051C25.9025 23.2823 28.9578 20.2271 32.7266 20.2271C36.4953 20.2271 39.5505 23.2823 39.5505 27.051C39.5505 30.8198 36.4953 33.875 32.7266 33.875C28.9578 33.875 25.9025 30.8198 25.9025 27.051ZM32.7266 23.1516C30.5729 23.1516 28.8271 24.8975 28.8271 27.051C28.8271 29.2046 30.5729 30.9505 32.7266 30.9505C34.8801 30.9505 36.626 29.2046 36.626 27.051C36.626 24.8975 34.8801 23.1516 32.7266 23.1516Z" fill="url(#paint3_linear_52_1341)"/>
<path fill-rule="evenodd" clip-rule="evenodd" d="M20.5418 45.8165C20.5418 45.0089 21.1965 44.3542 22.0041 44.3542H43.4508C44.2583 44.3542 44.913 45.0089 44.913 45.8165C44.913 46.6241 44.2583 47.2788 43.4508 47.2788H22.0041C21.1965 47.2788 20.5418 46.6241 20.5418 45.8165Z" fill="url(#paint4_linear_52_1341)"/>
<defs>
<linearGradient id="paint0_linear_52_1341" x1="16.8112" y1="21.5459" x2="48.714" y2="21.622" gradientUnits="userSpaceOnUse">
<stop stop-color="#1AA72A"/>
<stop offset="1" stop-color="#69D645"/>
</linearGradient>
<linearGradient id="paint1_linear_52_1341" x1="40.3886" y1="43.8271" x2="54.0632" y2="43.8589" gradientUnits="userSpaceOnUse">
<stop stop-color="#1AA72A"/>
<stop offset="1" stop-color="#69D645"/>
</linearGradient>
<linearGradient id="paint2_linear_52_1341" x1="11.3878" y1="43.9139" x2="25.0624" y2="43.9459" gradientUnits="userSpaceOnUse">
<stop stop-color="#1AA72A"/>
<stop offset="1" stop-color="#69D645"/>
</linearGradient>
<linearGradient id="paint3_linear_52_1341" x1="25.9025" y1="24.277" x2="39.5779" y2="24.329" gradientUnits="userSpaceOnUse">
<stop stop-color="#1AA72A"/>
<stop offset="1" stop-color="#69D645"/>
</linearGradient>
<linearGradient id="paint4_linear_52_1341" x1="20.5418" y1="45.2221" x2="44.9378" y2="45.9956" gradientUnits="userSpaceOnUse">
<stop stop-color="#1AA72A"/>
<stop offset="1" stop-color="#69D645"/>
</linearGradient>
</defs>
</svg>
