<svg width="66" height="66" viewBox="0 0 66 66" fill="none" xmlns="http://www.w3.org/2000/svg">
<path d="M9.53184 12.5232H50.4756C52.0933 12.5232 53.4002 13.8301 53.4002 15.4477V27.7491C54.4238 28.0416 55.4017 28.4255 56.3247 28.9007V15.4477C56.3247 12.2216 53.7018 9.59863 50.4756 9.59863H9.53184C6.30571 9.59863 3.68275 12.2216 3.68275 15.4477V41.7687C3.68275 44.9949 6.30571 47.6178 9.53184 47.6178H23.1584L22.1805 53.4669H16.8432C16.039 53.4669 15.381 54.125 15.381 54.9292C15.381 55.7335 16.039 56.3915 16.8432 56.3915H23.4235H36.584H39.7645C38.5855 55.5598 37.5254 54.5728 36.6023 53.4669H34.8567H30.0037H25.1508L26.1287 47.6178H30.0037H33.5315C33.2664 46.6765 33.0837 45.6986 32.9923 44.6933H24.9132C24.8949 44.6933 24.8767 44.6933 24.8583 44.6933H9.53184C7.91424 44.6933 6.60729 43.3864 6.60729 41.7687V15.4477C6.60729 13.8301 7.91424 12.5232 9.53184 12.5232ZM47.5511 27.2099V19.8346C47.5511 19.0303 46.893 18.3723 46.0888 18.3723H37.3151C36.5109 18.3723 35.8528 19.0303 35.8528 19.8346C35.8528 20.6388 36.5109 21.2969 37.3151 21.2969H42.5611L31.466 32.3919L25.1874 26.1132C24.6207 25.5466 23.6885 25.5466 23.1219 26.1132L12.886 36.3491C12.3193 36.9158 12.3193 37.848 12.886 38.4147C13.4526 38.9812 14.3848 38.9812 14.9514 38.4147L24.1546 29.2114L30.4333 35.4901C30.7074 35.7642 31.0822 35.9196 31.466 35.9196C31.8499 35.9196 32.2246 35.7642 32.4988 35.4901L44.6265 23.3623V27.7491C45.5679 27.4841 46.5458 27.3013 47.5511 27.2099ZM49.0133 32.9951C51.7281 32.9951 54.3317 34.0735 56.2513 35.9931C58.1709 37.9127 59.2493 40.5162 59.2493 43.231C59.2493 45.9458 58.1709 48.5493 56.2513 50.4689C54.3317 52.3885 51.7281 53.4669 49.0133 53.4669C46.2986 53.4669 43.6951 52.3885 41.7755 50.4689C39.8558 48.5493 38.7774 45.9458 38.7774 43.231C38.7774 40.5162 39.8558 37.9127 41.7755 35.9931C43.6951 34.0735 46.2986 32.9951 49.0133 32.9951ZM49.0133 56.3915C52.5038 56.3915 55.8511 55.0049 58.3192 52.5369C60.7873 50.0688 62.1738 46.7214 62.1738 43.231C62.1738 39.7407 60.7873 36.3932 58.3192 33.9251C55.8511 31.4571 52.5038 30.0705 49.0133 30.0705C45.523 30.0705 42.1755 31.4571 39.7075 33.9251C37.2394 36.3932 35.8528 39.7407 35.8528 43.231C35.8528 46.7214 37.2394 50.0688 39.7075 52.5369C42.1755 55.0049 45.523 56.3915 49.0133 56.3915ZM46.893 40.2516C46.9479 40.1694 47.0575 40.0597 47.2769 39.9409C47.743 39.6941 48.4193 39.5662 48.9859 39.5753C49.7354 39.5845 50.5487 39.7398 51.3987 39.95C52.1847 40.142 52.9798 39.6667 53.1717 38.8807C53.3636 38.0948 52.8884 37.2996 52.1024 37.1077C51.5906 36.9797 51.0423 36.8609 50.4665 36.7696V35.9196C50.4665 35.1154 49.8085 34.4573 49.0042 34.4573C48.2 34.4573 47.542 35.1154 47.542 35.9196V36.7878C46.9844 36.8975 46.4178 37.0803 45.8969 37.3636C44.8184 37.9394 43.7948 39.0453 43.9045 40.7634C43.9959 42.2257 44.9738 43.0756 45.8786 43.5692C46.6829 43.9987 47.679 44.282 48.4924 44.5105L48.6569 44.5562C49.5982 44.8213 50.2929 45.0314 50.7772 45.3147C51.1885 45.5615 51.2068 45.6986 51.2068 45.8265C51.2159 46.0459 51.1611 46.1647 51.1154 46.2378C51.0605 46.3292 50.9509 46.4389 50.7498 46.5394C50.3203 46.7679 49.6714 46.8867 49.059 46.8684C48.1908 46.841 47.3683 46.5851 46.3264 46.2469C46.1528 46.1922 45.9791 46.1373 45.7963 46.0824C45.0287 45.8448 44.2061 46.2744 43.9685 47.0421C43.7309 47.8098 44.1604 48.6323 44.9281 48.8699C45.0743 48.9156 45.2297 48.9613 45.3851 49.0162C46.0248 49.2263 46.7651 49.4548 47.5511 49.6193V50.6612C47.5511 51.4655 48.2091 52.1235 49.0133 52.1235C49.8176 52.1235 50.4756 51.4655 50.4756 50.6612V49.6925C51.0423 49.5919 51.618 49.4091 52.1481 49.1258C53.2539 48.5317 54.1862 47.4168 54.1313 45.7535C54.0856 44.2729 53.19 43.3498 52.2578 42.8015C51.3987 42.2897 50.3203 41.9881 49.4703 41.7505H49.452C48.5015 41.4854 47.7796 41.2752 47.2678 41.0011C46.8291 40.7634 46.8291 40.6355 46.8291 40.5897V40.5806C46.8199 40.407 46.8565 40.3156 46.9022 40.2516H46.893Z" fill="url(#paint0_linear_52_1307)"/>
<defs>
<linearGradient id="paint0_linear_52_1307" x1="3.68275" y1="23.4841" x2="62.2908" y2="23.7628" gradientUnits="userSpaceOnUse">
<stop stop-color="#1AA72A"/>
<stop offset="1" stop-color="#69D645"/>
</linearGradient>
</defs>
</svg>
