<svg width="29" height="23" viewBox="0 0 29 23" fill="none" xmlns="http://www.w3.org/2000/svg">
<path d="M24.5257 2.1106C22.6837 1.25417 20.714 0.63173 18.6548 0.277344C18.4019 0.73168 18.1065 1.34277 17.9027 1.82891C15.7138 1.50178 13.5449 1.50178 11.3962 1.82891C11.1925 1.34277 10.8903 0.73168 10.6352 0.277344C8.57381 0.63173 6.60192 1.25644 4.75985 2.11514C1.04437 7.69442 0.0371619 13.1351 0.540765 18.4986C3.00507 20.3273 5.39327 21.4381 7.74119 22.1651C8.32091 21.3723 8.83795 20.5295 9.28334 19.6413C8.43503 19.3209 7.62256 18.9257 6.85484 18.4668C7.05852 18.3168 7.25773 18.1601 7.45021 17.9988C12.1326 20.1751 17.2201 20.1751 21.8465 17.9988C22.0413 18.1601 22.2405 18.3168 22.4419 18.4668C21.672 18.9279 20.8572 19.3232 20.0089 19.6435C20.4544 20.5295 20.9692 21.3745 21.5511 22.1674C23.9013 21.4404 26.2917 20.3296 28.756 18.4986C29.3469 12.281 27.7465 6.89024 24.5257 2.1106ZM9.92122 15.2001C8.51559 15.2001 7.36292 13.8962 7.36292 12.3083C7.36292 10.7203 8.491 9.4141 9.92122 9.4141C11.3514 9.4141 12.5041 10.718 12.4795 12.3083C12.4817 13.8962 11.3514 15.2001 9.92122 15.2001ZM19.3755 15.2001C17.9699 15.2001 16.8172 13.8962 16.8172 12.3083C16.8172 10.7203 17.9453 9.4141 19.3755 9.4141C20.8058 9.4141 21.9584 10.718 21.9339 12.3083C21.9339 13.8962 20.8058 15.2001 19.3755 15.2001Z" fill="url(#paint0_linear_59_100)"/>
<defs>
<linearGradient id="paint0_linear_59_100" x1="0.419922" y1="6.77307" x2="28.9338" y2="6.9141" gradientUnits="userSpaceOnUse">
<stop stop-color="#1AA72A"/>
<stop offset="1" stop-color="#69D645"/>
</linearGradient>
</defs>
</svg>
