<svg width="867" height="781" viewBox="0 0 867 781" fill="none" xmlns="http://www.w3.org/2000/svg">
<path d="M748.824 281.049C715.378 243.261 676.701 209.533 633.325 181.022C623.055 188.858 610.262 199.842 600.795 208.89C554.195 179.711 504.803 158.181 452.623 144.302C452.81 131.209 451.994 114.292 450.695 101.414C400.232 89.0209 349.125 83.673 298.652 84.9425C158.656 175.116 81.7108 289.018 39.9374 416.16C77.9039 482.267 121.264 531.271 167.516 571.134C188.588 558.834 208.728 544.773 227.688 528.968C211.55 513.25 196.971 496.185 184.043 478.114C190.17 476.72 196.263 475.129 202.247 473.366C287.276 569.408 403.133 619.91 530.093 616.274C532.928 621.881 535.909 627.427 539.007 632.842C516.897 635.7 494.417 636.614 471.919 635.488C473.27 660.087 476.605 684.44 481.986 708.273C542.723 715.047 608.186 713.48 682.481 696.245C757.658 560.518 774.725 421.867 748.824 281.049ZM286.301 434.161C254.291 420.207 240.984 379.072 256.747 342.91C272.511 306.747 311.167 288.199 343.737 302.397C376.307 316.594 389.614 357.73 373.267 393.702C357.555 429.884 318.871 448.358 286.301 434.161ZM501.603 528.011C469.594 514.058 456.287 472.922 472.049 436.761C487.813 400.597 526.469 382.05 559.039 396.247C591.611 410.445 604.916 451.58 588.572 487.553C572.809 523.714 534.175 542.209 501.603 528.011Z" fill="url(#paint0_radial_1_5)" fill-opacity="0.3"/>
<path d="M748.824 281.049C715.378 243.261 676.701 209.533 633.325 181.022C623.055 188.858 610.262 199.842 600.795 208.89C554.195 179.711 504.803 158.181 452.623 144.302C452.81 131.209 451.994 114.292 450.695 101.414C400.232 89.0209 349.125 83.673 298.652 84.9425C158.656 175.116 81.7108 289.018 39.9374 416.16C77.9039 482.267 121.264 531.271 167.516 571.134C188.588 558.834 208.728 544.773 227.688 528.968C211.55 513.25 196.971 496.185 184.043 478.114C190.17 476.72 196.263 475.129 202.247 473.366C287.276 569.408 403.133 619.91 530.093 616.274C532.928 621.881 535.909 627.427 539.007 632.842C516.897 635.7 494.417 636.614 471.919 635.488C473.27 660.087 476.605 684.44 481.986 708.273C542.723 715.047 608.186 713.48 682.481 696.245C757.658 560.518 774.725 421.867 748.824 281.049ZM286.301 434.161C254.291 420.207 240.984 379.072 256.747 342.91C272.511 306.747 311.167 288.199 343.737 302.397C376.307 316.594 389.614 357.73 373.267 393.702C357.555 429.884 318.871 448.358 286.301 434.161ZM501.603 528.011C469.594 514.058 456.287 472.922 472.049 436.761C487.813 400.597 526.469 382.05 559.039 396.247C591.611 410.445 604.916 451.58 588.572 487.553C572.809 523.714 534.175 542.209 501.603 528.011Z" fill="url(#paint1_radial_1_5)" fill-opacity="0.6"/>
<path fill-rule="evenodd" clip-rule="evenodd" d="M532.55 633.621C514.506 635.637 496.241 636.361 477.943 635.741C475.935 635.672 473.927 635.588 471.919 635.488C472.03 637.498 472.153 639.506 472.29 641.513C473.828 664.063 477.045 686.388 481.986 708.273C542.723 715.047 608.186 713.48 682.481 696.245C757.658 560.518 774.725 421.867 748.824 281.049C715.378 243.261 676.701 209.533 633.325 181.022C623.055 188.858 610.262 199.842 600.795 208.89C554.195 179.711 504.803 158.181 452.623 144.302C452.81 131.209 451.994 114.292 450.695 101.414C400.232 89.0209 349.125 83.673 298.652 84.9425C158.656 175.116 81.7108 289.018 39.9374 416.16C77.9039 482.267 121.264 531.271 167.516 571.134C186.869 559.837 205.436 547.055 223.025 532.801C224.587 531.535 226.142 530.257 227.688 528.968C226.248 527.565 224.82 526.151 223.404 524.727C210.511 511.755 198.653 497.913 187.88 483.383C186.586 481.636 185.306 479.88 184.043 478.114C186.151 477.634 188.255 477.131 190.351 476.606C194.349 475.605 198.321 474.522 202.247 473.366C287.276 569.408 403.133 619.91 530.093 616.274C531.95 619.947 533.87 623.593 535.843 627.193C536.883 629.09 537.938 630.974 539.007 632.842C536.858 633.12 534.705 633.38 532.55 633.621ZM218.743 528.548C204.226 513.899 191.01 498.166 179.163 481.605L173.913 474.265L182.712 472.263C188.716 470.897 194.687 469.338 200.552 467.611L204.211 466.533L206.739 469.389C290.603 564.115 404.759 613.861 529.922 610.277L533.729 610.168L535.448 613.567C538.238 619.085 541.17 624.54 544.215 629.863L548.665 637.644L539.776 638.793C519.51 641.412 498.939 642.424 478.321 641.756C479.756 662.352 482.61 682.745 486.917 702.771C545.125 708.859 607.752 707.109 678.523 690.998C751.591 557.853 768.312 421.961 743.223 283.778C711.303 247.925 674.607 215.795 633.599 188.401C624.179 195.816 613.244 205.291 604.941 213.227L601.567 216.452L597.611 213.975C551.51 185.109 502.67 163.823 451.081 150.1L446.557 148.897L446.624 144.216C446.787 132.757 446.165 118.237 445.121 106.239C397.091 94.8222 348.505 89.8347 300.485 90.9007C163.558 179.527 87.8994 291.012 46.4783 415.491C82.8645 478.249 124.161 525.297 168.186 563.771C185.766 553.279 202.669 541.535 218.743 528.548ZM283.904 439.661C248.24 424.115 234.445 379.058 251.247 340.513C268.031 302.008 309.874 281.09 346.134 296.896C382.308 312.664 396.191 357.698 378.751 396.137C362 434.653 320.138 455.455 283.904 439.661ZM373.267 393.702C389.614 357.73 376.307 316.594 343.737 302.397C311.167 288.199 272.511 306.747 256.747 342.91C240.984 379.072 254.291 420.207 286.301 434.161C318.871 448.358 357.555 429.884 373.267 393.702ZM499.206 533.511C463.543 517.966 449.748 472.908 466.549 434.363C483.333 395.858 525.177 374.941 561.437 390.746C597.615 406.516 611.494 451.554 594.052 489.995C577.253 528.475 535.449 549.309 499.206 533.511ZM472.049 436.761C456.287 472.922 469.594 514.058 501.603 528.011C534.175 542.209 572.809 523.714 588.572 487.553C604.916 451.58 591.611 410.445 559.039 396.247C526.469 382.05 487.813 400.597 472.049 436.761Z" fill="url(#paint2_linear_1_5)"/>
<defs>
<radialGradient id="paint0_radial_1_5" cx="0" cy="0" r="1" gradientUnits="userSpaceOnUse" gradientTransform="translate(862.582 290.595) rotate(165.984) scale(891.901 647.42)">
<stop stop-color="#7A817A" stop-opacity="0.4"/>
<stop offset="1" stop-color="#070709"/>
</radialGradient>
<radialGradient id="paint1_radial_1_5" cx="0" cy="0" r="1" gradientUnits="userSpaceOnUse" gradientTransform="translate(195.902 583.569) rotate(-15.56) scale(535.532 590.943)">
<stop stop-color="#1B3A1B"/>
<stop offset="1" stop-color="#1E441E" stop-opacity="0"/>
</radialGradient>
<linearGradient id="paint2_linear_1_5" x1="153.581" y1="147.936" x2="801.527" y2="434.197" gradientUnits="userSpaceOnUse">
<stop stop-color="#1AA72A"/>
<stop offset="1" stop-color="#69D645"/>
</linearGradient>
</defs>
</svg>
