<svg width="44" height="34" viewBox="0 0 44 34" fill="none" xmlns="http://www.w3.org/2000/svg">
<path d="M37.1562 2.96285C34.3185 1.6435 31.2841 0.684613 28.1119 0.138672C27.7223 0.838589 27.2672 1.77999 26.9533 2.5289C23.5812 2.02495 20.2399 2.02495 16.9298 2.5289C16.616 1.77999 16.1505 0.838589 15.7575 0.138672C12.5818 0.684613 9.54405 1.647 6.70629 2.96985C0.982487 11.5649 -0.569144 19.9464 0.20667 28.209C4.003 31.0262 7.68209 32.7374 11.2991 33.8574C12.1922 32.636 12.9887 31.3377 13.6748 29.9694C12.368 29.4758 11.1164 28.867 9.93368 28.16C10.2475 27.929 10.5543 27.6875 10.8509 27.4391C18.0643 30.7917 25.9017 30.7917 33.0288 27.4391C33.3289 27.6875 33.6358 27.929 33.946 28.16C32.76 28.8704 31.5047 29.4793 30.1979 29.9728C30.8842 31.3377 31.6773 32.6394 32.5737 33.8609C36.1943 32.7409 39.8767 31.0297 43.6731 28.209C44.5834 18.6306 42.1179 10.326 37.1562 2.96285ZM14.6575 23.1276C12.4921 23.1276 10.7164 21.1189 10.7164 18.6727C10.7164 16.2263 12.4542 14.2141 14.6575 14.2141C16.8608 14.2141 18.6366 16.2228 18.5987 18.6727C18.6021 21.1189 16.8608 23.1276 14.6575 23.1276ZM29.2221 23.1276C27.0568 23.1276 25.281 21.1189 25.281 18.6727C25.281 16.2263 27.0189 14.2141 29.2221 14.2141C31.4256 14.2141 33.2012 16.2228 33.1634 18.6727C33.1634 21.1189 31.4256 23.1276 29.2221 23.1276Z" fill="white"/>
</svg>
