<svg width="13" height="16" viewBox="0 0 13 16" fill="none" xmlns="http://www.w3.org/2000/svg">
<path fill-rule="evenodd" clip-rule="evenodd" d="M6.5 0.110352C6.77614 0.110352 7 0.334209 7 0.610352V10.5943L10.1383 7.30614C10.329 7.10638 10.6455 7.099 10.8452 7.28965C11.045 7.48031 11.0524 7.79681 10.8617 7.99657L6.8617 12.1876C6.76706 12.2867 6.63586 12.3427 6.49878 12.3424C6.36171 12.342 6.23078 12.2854 6.13663 12.1858L2.13663 7.9538C1.94694 7.75312 1.95586 7.43666 2.15655 7.24698C2.35723 7.05729 2.67369 7.06621 2.86337 7.2669L6 10.5855V0.610352C6 0.334209 6.22386 0.110352 6.5 0.110352ZM0 14.6104C0 14.3342 0.223858 14.1104 0.5 14.1104H12.5C12.7761 14.1104 13 14.3342 13 14.6104C13 14.8865 12.7761 15.1104 12.5 15.1104H0.5C0.223858 15.1104 0 14.8865 0 14.6104Z" fill="white"/>
</svg>
