<svg width="89" height="60" viewBox="0 0 89 60" fill="none" xmlns="http://www.w3.org/2000/svg">
<path fill-rule="evenodd" clip-rule="evenodd" d="M79.4893 17.3075C77.9645 15.3449 75.1375 14.9899 73.1749 16.5147C71.2123 18.0394 70.8573 20.8664 72.3821 22.829C73.4308 24.179 74.3773 25.5993 75.216 27.0778L83.0666 22.6767C82.009 20.8077 80.8142 19.0129 79.4893 17.3075ZM84.0122 24.4394L76.1534 28.8452C76.7079 29.966 77.2027 31.1158 77.6357 32.2899L85.5645 27.8449C85.0952 26.6883 84.5773 25.5521 84.0122 24.4394ZM79.0815 37.3363C78.8629 36.2834 78.5968 35.2433 78.2847 34.2189L86.2819 29.7355C86.7916 31.1769 87.2274 32.6463 87.5868 34.1382L79.3465 38.7578C79.2679 38.2827 79.1796 37.8088 79.0815 37.3363ZM79.6327 40.8902C79.8061 42.5675 79.8592 44.2534 79.7922 45.9351L88.6762 40.9546C88.5471 39.357 88.3313 37.7643 88.0286 36.1834L79.6327 40.8902ZM78.7119 53.3115C79.1331 51.6691 79.4344 50.0033 79.6155 48.327L88.7997 43.1782C88.8526 44.9185 88.8031 46.6606 88.6513 48.3954L78.5873 54.0374C78.6087 53.7963 78.6499 53.5537 78.7119 53.3115ZM78.9119 56.1483C79.4354 57.4119 80.5264 58.4223 81.9532 58.7882C84.3606 59.4055 86.8126 57.9543 87.4299 55.5469C87.8279 53.9947 88.1406 52.4258 88.3678 50.8472L78.9119 56.1483Z" fill="#D8D8D8"/>
<path fill-rule="evenodd" clip-rule="evenodd" d="M44.4002 0.159944C51.1696 0.15185 57.8511 1.69289 63.9332 4.66509C70.0152 7.63728 75.3365 11.9618 79.4896 17.3075C81.0144 19.2701 80.6594 22.0972 78.6968 23.6219C76.7342 25.1467 73.9072 24.7917 72.3824 22.8291C69.0718 18.5678 64.8299 15.1205 59.9816 12.7512C55.1334 10.3819 49.8072 9.15349 44.411 9.15994C39.0147 9.16639 33.6915 10.4076 28.8489 12.7884C24.0063 15.1693 19.7727 18.6267 16.4723 22.896C13.1718 27.1652 10.8921 32.1331 9.80757 37.4192C8.72305 42.7053 8.86253 48.1696 10.2153 53.3935C10.8384 55.7994 9.39304 58.2549 6.98712 58.8779C4.5812 59.5009 2.12575 58.0556 1.50271 55.6497C-0.194324 49.0964 -0.36929 42.2417 0.991208 35.6104C2.35171 28.9791 5.21159 22.7471 9.35189 17.3914C13.4922 12.0357 18.8031 7.69851 24.878 4.71178C30.953 1.72505 37.6308 0.168037 44.4002 0.159944Z" fill="url(#paint0_linear_0_5)"/>
<g filter="url(#filter0_d_0_5)">
<path d="M81.4355 19.9246C81.4355 22.9622 78.9731 25.4246 75.9355 25.4246C72.898 25.4246 70.4355 22.9622 70.4355 19.9246C70.4355 16.8871 72.898 14.4246 75.9355 14.4246C78.9731 14.4246 81.4355 16.8871 81.4355 19.9246Z" fill="url(#paint1_linear_0_5)"/>
</g>
<defs>
<filter id="filter0_d_0_5" x="62.4355" y="10.4246" width="19" height="19" filterUnits="userSpaceOnUse" color-interpolation-filters="sRGB">
<feFlood flood-opacity="0" result="BackgroundImageFix"/>
<feColorMatrix in="SourceAlpha" type="matrix" values="0 0 0 0 0 0 0 0 0 0 0 0 0 0 0 0 0 0 127 0" result="hardAlpha"/>
<feOffset dx="-4"/>
<feGaussianBlur stdDeviation="2"/>
<feComposite in2="hardAlpha" operator="out"/>
<feColorMatrix type="matrix" values="0 0 0 0 0 0 0 0 0 0 0 0 0 0 0 0 0 0 0.25 0"/>
<feBlend mode="normal" in2="BackgroundImageFix" result="effect1_dropShadow_0_5"/>
<feBlend mode="normal" in="SourceGraphic" in2="effect1_dropShadow_0_5" result="shape"/>
</filter>
<linearGradient id="paint0_linear_0_5" x1="0.0859375" y1="17.627" x2="80.5966" y2="18.0452" gradientUnits="userSpaceOnUse">
<stop stop-color="#1AA72A"/>
<stop offset="1" stop-color="#69D645"/>
</linearGradient>
<linearGradient id="paint1_linear_0_5" x1="70.5592" y1="17.4313" x2="81.3763" y2="17.4581" gradientUnits="userSpaceOnUse">
<stop offset="0.289124" stop-color="#A1DB5C"/>
<stop offset="1" stop-color="#65B52C"/>
</linearGradient>
</defs>
</svg>
