<svg width="718" height="584" viewBox="0 0 718 584" fill="none" xmlns="http://www.w3.org/2000/svg">
<path fill-rule="evenodd" clip-rule="evenodd" d="M359 167C289.964 167 234 222.964 234 292C234 361.037 289.964 417 359 417C428.037 417 484 361.037 484 292C484 222.964 428.037 167 359 167ZM284 292C284 250.58 317.58 217 359 217C400.42 217 434 250.58 434 292C434 333.42 400.42 367 359 367C317.58 367 284 333.42 284 292Z" fill="#1C274C"/>
<path fill-rule="evenodd" clip-rule="evenodd" d="M359 0.333374C208.529 0.333374 107.176 90.4734 48.3524 166.895L47.2914 168.273C33.9881 185.551 21.7354 201.464 13.4231 220.28C4.52141 240.43 0.666748 262.39 0.666748 292C0.666748 321.61 4.52141 343.57 13.4231 363.72C21.7354 382.537 33.9881 398.45 47.2917 415.727L48.3524 417.103C107.176 493.527 208.529 583.667 359 583.667C509.47 583.667 610.823 493.527 669.647 417.103L670.707 415.727C684.013 398.45 696.263 382.537 704.577 363.72C713.48 343.57 717.333 321.61 717.333 292C717.333 262.39 713.48 240.43 704.577 220.28C696.263 201.464 684.013 185.551 670.707 168.273L669.647 166.895C610.823 90.4734 509.47 0.333374 359 0.333374ZM87.9741 197.393C142.288 126.831 230.679 50.3334 359 50.3334C487.32 50.3334 575.713 126.831 630.027 197.393C644.647 216.386 653.21 227.737 658.84 240.483C664.107 252.4 667.333 266.963 667.333 292C667.333 317.037 664.107 331.6 658.84 343.517C653.21 356.263 644.647 367.613 630.027 386.607C575.713 457.17 487.32 533.667 359 533.667C230.679 533.667 142.288 457.17 87.9741 386.607C73.3547 367.613 64.7914 356.263 59.1587 343.517C53.8947 331.6 50.6667 317.037 50.6667 292C50.6667 266.963 53.8947 252.4 59.1587 240.483C64.7914 227.737 73.3544 216.386 87.9741 197.393Z" fill="#1C274C"/>
</svg>
