<svg width="15" height="16" viewBox="0 0 15 16" fill="none" xmlns="http://www.w3.org/2000/svg">
<path d="M0.164982 0.775833C0.0697192 0.871074 0.0117981 0.99734 0.0017507 1.13167C-0.00829665 1.266 0.030197 1.39948 0.110232 1.50783L0.164982 1.57083L3.19048 4.59708C1.71525 5.63105 0.662147 7.16212 0.224232 8.90958C0.190467 9.05344 0.214661 9.2048 0.291586 9.33096C0.368512 9.45712 0.49199 9.54794 0.635335 9.5838C0.77868 9.61967 0.930379 9.59768 1.05765 9.52261C1.18492 9.44753 1.27753 9.32539 1.31548 9.18258C1.70466 7.63158 2.66316 6.28379 4.00048 5.40708L5.35798 6.76458C4.81573 7.3312 4.51693 8.08764 4.52558 8.87188C4.53422 9.65611 4.84964 10.4058 5.40426 10.9603C5.95888 11.5148 6.7086 11.8301 7.49284 11.8386C8.27707 11.8471 9.03346 11.5482 9.59998 11.0058L14.0392 15.4458C14.1396 15.5465 14.2744 15.6054 14.4164 15.6107C14.5584 15.6161 14.6972 15.5674 14.8049 15.4746C14.9125 15.3818 14.981 15.2517 14.9966 15.1104C15.0122 14.9691 14.9738 14.8272 14.889 14.7131L14.8342 14.6501L10.2495 10.0646L10.2502 10.0631L9.35023 9.16458L7.19773 7.01208H7.19923L5.03923 4.85433L5.03998 4.85283L4.19023 4.00533L0.959982 0.775833C0.854513 0.670495 0.711545 0.611328 0.562482 0.611328C0.413419 0.611328 0.270451 0.670495 0.164982 0.775833ZM6.15298 7.55958L8.80423 10.2116C8.4506 10.5531 7.97697 10.7421 7.48536 10.7378C6.99374 10.7336 6.52346 10.5364 6.17582 10.1887C5.82818 9.8411 5.63099 9.37083 5.62672 8.87921C5.62245 8.38759 5.81144 7.91321 6.15298 7.55958ZM7.49998 3.23583C6.74998 3.23583 6.02248 3.34683 5.33323 3.55458L6.26098 4.48158C7.86564 4.16385 9.53104 4.4749 10.9128 5.3504C12.2947 6.22591 13.2872 7.59893 13.6852 9.18558C13.7241 9.32728 13.8168 9.44815 13.9437 9.52234C14.0705 9.59653 14.2213 9.61816 14.3639 9.58259C14.5064 9.54703 14.6294 9.45709 14.7065 9.33202C14.7836 9.20695 14.8087 9.05668 14.7765 8.91333C14.3698 7.29143 13.4329 5.85188 12.1146 4.82326C10.7963 3.79465 9.1721 3.23593 7.49998 3.23583ZM7.64623 5.86833L10.497 8.71833C10.4601 7.97426 10.1479 7.27047 9.62104 6.74375C9.09419 6.21703 8.39032 5.90501 7.64623 5.86833Z" fill="black"/>
</svg>
