<svg width="94" height="47" viewBox="0 0 94 47" fill="none" xmlns="http://www.w3.org/2000/svg">
<path d="M8.49114 23.6104C8.49114 27.5514 10.0567 31.331 12.8434 34.1177C15.6301 36.9044 19.4097 38.4699 23.3506 38.4699C28.4623 38.4699 31.9267 36.6273 34.8137 33.7446C37.4502 31.0996 39.573 27.631 41.8401 23.6104C39.573 19.5899 37.4502 16.1212 34.8094 13.4762C31.9267 10.5892 28.4623 8.75091 23.3506 8.75091C19.4097 8.75091 15.6301 10.3165 12.8434 13.1032C10.0567 15.8899 8.49114 19.6694 8.49114 23.6104ZM23.3506 46.9611C17.1577 46.9611 11.2183 44.5009 6.83925 40.1218C2.46015 35.7427 0 29.8034 0 23.6104C0 17.4174 2.46015 11.4781 6.83925 7.09901C11.2183 2.71991 17.1577 0.259766 23.3506 0.259766C30.9757 0.259766 36.5331 3.19346 40.8127 7.47724C43.0883 9.74437 45.0031 12.4106 46.7013 15.1278C48.3995 12.4106 50.3143 9.74438 52.5899 7.47299C56.8694 3.19346 62.4226 0.259766 70.0519 0.259766C76.2449 0.259766 82.1842 2.71991 86.5633 7.09901C90.9424 11.4781 93.4026 17.4174 93.4026 23.6104C93.4026 29.8034 90.9424 35.7427 86.5633 40.1218C82.1842 44.5009 76.2449 46.9611 70.0519 46.9611C62.4269 46.9611 56.8694 44.0274 52.5899 39.7436C50.3143 37.4765 48.3995 34.8102 46.7013 32.0931C45.0031 34.8102 43.0883 37.4764 40.8127 39.7478C36.5331 44.0274 30.9799 46.9611 23.3506 46.9611ZM51.5625 23.6104C53.8296 27.631 55.9524 31.0996 58.5931 33.7446C61.4801 36.6316 64.9445 38.4699 70.0519 38.4699C72.0033 38.4699 73.9356 38.0856 75.7384 37.3388C77.5413 36.592 79.1794 35.4975 80.5592 34.1177C81.939 32.7378 83.0336 31.0997 83.7803 29.2969C84.5271 27.4941 84.9114 25.5618 84.9114 23.6104C84.9114 21.659 84.5271 19.7268 83.7803 17.9239C83.0336 16.1211 81.939 14.483 80.5592 13.1032C79.1794 11.7233 77.5413 10.6288 75.7384 9.88202C73.9356 9.13526 72.0033 8.75091 70.0519 8.75091C64.9445 8.75091 61.4759 10.5935 58.5889 13.4762C55.9524 16.1212 53.8296 19.5899 51.5625 23.6104Z" fill="url(#paint0_linear_92_113)"/>
<defs>
<linearGradient id="paint0_linear_92_113" x1="-1.06685e-09" y1="14.1181" x2="93.5861" y2="14.8302" gradientUnits="userSpaceOnUse">
<stop stop-color="#1AA72A"/>
<stop offset="1" stop-color="#69D645"/>
</linearGradient>
</defs>
</svg>
