<svg width="29" height="28" viewBox="0 0 29 28" fill="none" xmlns="http://www.w3.org/2000/svg">
<path d="M14.5002 21.3852C10.429 21.3852 7.11523 18.0725 7.11523 14.0002C7.11523 9.92794 10.429 6.61523 14.5002 6.61523C18.5715 6.61523 21.8852 9.92794 21.8852 14.0002C21.8852 18.0725 18.5715 21.3852 14.5002 21.3852ZM14.5002 8.72524C11.5916 8.72524 9.22524 11.0916 9.22524 14.0002C9.22524 16.9089 11.5916 19.2752 14.5002 19.2752C17.4089 19.2752 19.7752 16.9089 19.7752 14.0002C19.7752 11.0916 17.4089 8.72524 14.5002 8.72524Z" fill="white"/>
<path d="M22.4146 7.6703C23.2886 7.6703 23.9971 6.96172 23.9971 6.08775C23.9971 5.21376 23.2886 4.50525 22.4146 4.50525C21.5406 4.50525 20.832 5.21376 20.832 6.08775C20.832 6.96172 21.5406 7.6703 22.4146 7.6703Z" fill="white"/>
<path d="M20.8301 27.7151H8.17019C4.09891 27.7151 0.785156 24.4025 0.785156 20.3302V7.67012C0.785156 3.59785 4.09891 0.285156 8.17019 0.285156H20.8301C24.9014 0.285156 28.2151 3.59785 28.2151 7.67012V20.3302C28.2151 24.4025 24.9014 27.7151 20.8301 27.7151ZM8.17019 2.39515C5.26152 2.39515 2.89515 4.76152 2.89515 7.67012V20.3302C2.89515 23.2387 5.26152 25.6052 8.17019 25.6052H20.8301C23.7388 25.6052 26.1051 23.2387 26.1051 20.3302V7.67012C26.1051 4.76152 23.7388 2.39515 20.8301 2.39515H8.17019Z" fill="white"/>
</svg>
