<svg width="18" height="19" viewBox="0 0 18 19" fill="none" xmlns="http://www.w3.org/2000/svg">
<path d="M4 18.1104V16.1104H8V13.0104C7.18333 12.827 6.454 12.481 5.812 11.9724C5.17 11.4637 4.69933 10.8264 4.4 10.0604C3.15 9.91035 2.104 9.36469 1.262 8.42335C0.420001 7.48202 -0.000665876 6.37769 7.91139e-07 5.11035V4.11035C7.91139e-07 3.56035 0.196001 3.08935 0.588001 2.69735C0.980001 2.30535 1.45067 2.10968 2 2.11035H4V0.110352H14V2.11035H16C16.55 2.11035 17.021 2.30635 17.413 2.69835C17.805 3.09035 18.0007 3.56102 18 4.11035V5.11035C18 6.37702 17.579 7.48135 16.737 8.42335C15.895 9.36535 14.8493 9.91102 13.6 10.0604C13.3 10.827 12.829 11.4647 12.187 11.9734C11.545 12.482 10.816 12.8277 10 13.0104V16.1104H14V18.1104H4ZM4 7.91035V4.11035H2V5.11035C2 5.74368 2.18333 6.31469 2.55 6.82335C2.91667 7.33202 3.4 7.69435 4 7.91035ZM14 7.91035C14.6 7.69369 15.0833 7.33102 15.45 6.82235C15.8167 6.31368 16 5.74302 16 5.11035V4.11035H14V7.91035Z" fill="url(#paint0_linear_76_106)"/>
<defs>
<linearGradient id="paint0_linear_76_106" x1="-2.05598e-10" y1="5.45173" x2="18.0362" y2="5.52035" gradientUnits="userSpaceOnUse">
<stop stop-color="#1AA72A"/>
<stop offset="1" stop-color="#69D645"/>
</linearGradient>
</defs>
</svg>
