<svg width="400" height="115" viewBox="0 0 400 115" fill="none" xmlns="http://www.w3.org/2000/svg">
<path fill-rule="evenodd" clip-rule="evenodd" d="M236.148 4.49969C234.417 5.74017 232.639 7.51059 230.819 9.55778C228.077 12.6924 225.16 16.8504 222.105 21.2043C221.629 21.8828 221.15 22.566 220.667 23.2509C217.128 28.2749 213.423 33.376 209.693 37.1161C203.151 45.5083 195.633 50.2264 188.058 52.12C185.656 52.7206 183.311 53.1347 181.042 53.5352C179.821 53.7508 178.622 53.9625 177.448 54.1972C174.063 54.8743 170.727 55.7665 167.179 57.5344C165.407 58.6454 163.68 59.9818 161.94 61.3508C161.782 61.475 161.624 61.5995 161.466 61.7242C159.883 62.9718 158.283 64.2323 156.68 65.3009C153.184 67.6318 149.39 69.2425 145.265 67.7213C143.251 67.2054 141.302 66.0264 139.447 64.5656C137.568 63.0865 135.721 61.2662 133.936 59.4237C133.352 58.8202 132.776 58.2166 132.207 57.6202C131.021 56.3767 129.864 55.1643 128.718 54.0475C127.024 52.3966 125.433 51.0345 123.94 50.181L123.923 50.1712L123.906 50.1608C120.533 48.0529 117.17 48.0339 113.807 49.0101C110.66 49.9238 107.591 51.684 104.583 53.41C104.323 53.5588 104.064 53.7074 103.805 53.8552L103.781 53.869L103.757 53.8814C96.4825 57.5184 89.2515 62.041 82.014 70.1825C78.7127 73.9546 75.1823 76.5441 71.5884 78.8685C70.4683 79.593 69.3518 80.2862 68.2364 80.9787C65.7603 82.5159 63.2892 84.0501 60.7936 85.9171C57.4896 89.2017 53.6697 91.1105 49.5843 89.6609C45.6089 88.2503 41.789 83.7677 38.0972 75.4612L38.0916 75.4486L38.0863 75.4358C36.7452 72.1789 35.3802 68.645 33.9889 65.0434C32.0063 59.9107 29.9706 54.6406 27.8756 49.839C26.1031 45.7764 24.3176 42.1228 22.5334 39.2688C20.7256 36.377 19.0111 34.4603 17.4372 33.6734C16.7691 33.3393 16.1514 33.3231 15.5194 33.5546C14.8482 33.8006 14.1108 34.3477 13.3221 35.2366C11.7405 37.0192 10.1841 39.9087 8.7003 43.3899C6.24089 49.16 4.09525 56.2701 2.37884 61.9579C2.03049 63.1123 1.69981 64.2081 1.38778 65.2222L-2.24219 77.0196V113.611H-4.24219V76.7188L-0.523778 64.634C-0.218111 63.6406 0.107838 62.5601 0.452854 61.4165C2.16747 55.733 4.35301 48.4885 6.86046 42.6057C8.36196 39.0829 10.0204 35.9444 11.826 33.9093C12.7309 32.8894 13.7301 32.0802 14.8314 31.6767C15.972 31.2588 17.1626 31.3 18.3316 31.8845C20.4319 32.9346 22.3916 35.2691 24.2293 38.2086C26.0906 41.186 27.9219 44.9439 29.7087 49.0392C31.8072 53.8489 33.8856 59.2265 35.8901 64.4133C37.2782 68.0049 38.6309 71.5051 39.9304 74.6616C43.585 82.8801 47.1114 86.6612 50.2531 87.776C53.2654 88.8449 56.3163 87.5661 59.4305 84.452L59.4807 84.4017L59.5376 84.3591C62.1245 82.4189 64.7368 80.7967 67.266 79.2261C68.3634 78.5446 69.4451 77.8729 70.5022 77.1892C74.026 74.9101 77.3839 72.4369 80.5116 68.8623L80.5167 68.8565C87.9668 60.4752 95.4235 55.8139 102.837 52.105C103.095 51.9575 103.356 51.8079 103.619 51.6569C106.584 49.9543 109.859 48.0737 113.249 47.0894C117 46.0005 120.979 45.98 124.949 48.4544C126.665 49.4382 128.398 50.9421 130.114 52.6153C131.286 53.7574 132.486 55.0152 133.687 56.2738C134.25 56.8637 134.813 57.4537 135.373 58.0321C137.147 59.8638 138.917 61.6028 140.684 62.9942C142.457 64.3905 144.165 65.3849 145.805 65.795L145.86 65.8089L145.914 65.8288C149.116 67.0297 152.193 65.8886 155.571 63.6368C157.104 62.6149 158.64 61.4043 160.236 60.1465C160.391 60.0245 160.547 59.9019 160.703 59.7791C162.452 58.4029 164.27 56.9936 166.159 55.8132L166.199 55.788L166.242 55.7667C170.026 53.8745 173.566 52.934 177.056 52.236C178.323 51.9826 179.564 51.7641 180.802 51.5459C183.019 51.1552 185.229 50.7657 187.573 50.1797C194.68 48.4029 201.844 43.9502 208.153 35.8392L208.191 35.79L208.235 35.746C211.839 32.1417 215.467 27.1591 219.032 22.099C219.51 21.4217 219.986 20.7428 220.461 20.0659C223.507 15.7224 226.496 11.461 229.316 8.2382L229.321 8.23234C231.175 6.14746 233.07 4.24494 234.983 2.87396C236.889 1.50812 238.915 0.596141 241.009 0.66367C243.145 0.732584 245.142 1.81228 246.979 3.98911C248.797 6.14286 250.509 9.4234 252.132 14.0569C255.796 23.2159 259.459 32.342 263.123 41.4687L263.146 41.5253L263.15 41.5358C266.823 50.6844 270.496 59.8336 274.169 69.0162L274.177 69.0366L274.184 69.0573C275.774 73.6002 277.389 76.624 278.98 78.4825C280.553 80.3194 282.035 80.9483 283.427 80.9034C284.876 80.8566 286.47 80.0757 288.219 78.5749C289.95 77.0892 291.728 74.9882 293.54 72.4983C295.22 69.8672 297 68.2587 298.879 67.262C300.751 66.2685 302.65 65.9232 304.467 65.7057C304.938 65.6493 305.402 65.6008 305.862 65.5529C308.991 65.2264 311.879 64.9249 314.835 62.3384C316.771 60.6449 318.705 59.6255 320.668 59.2393C322.638 58.8518 324.557 59.1177 326.428 59.8661C330.106 61.3371 333.68 64.7096 337.348 68.8344C339.223 70.7127 341.027 72.9268 342.776 75.1624C343.295 75.8264 343.808 76.4907 344.317 77.1498C345.542 78.7356 346.744 80.2914 347.952 81.7403C349.659 83.7891 351.323 85.5558 352.981 86.8063C354.64 88.0569 356.21 88.7289 357.747 88.7289C359.294 88.7289 360.874 88.0497 362.561 86.9295C363.939 86.0151 365.295 84.8729 366.699 83.6898C367.02 83.4197 367.343 83.1474 367.67 82.8753C369.389 81.4427 371.201 80.0143 373.082 79.1351C374.979 78.2491 377.028 77.8834 379.171 78.6687C381.255 79.2066 383.232 80.6734 385.037 82.5659C386.871 84.4895 388.608 86.9391 390.179 89.5588C393.312 94.7794 395.859 100.794 397.259 104.982L400.914 113.205L399.086 114.017L395.392 105.706L395.377 105.66C394.018 101.584 391.521 95.6818 388.464 90.5878C386.936 88.0407 385.286 85.7253 383.589 83.946C381.879 82.1524 380.201 80.9875 378.631 80.595L378.576 80.5812L378.522 80.5612C377.011 79.9945 375.519 80.2042 373.929 80.9471C372.309 81.704 370.676 82.9738 368.95 84.4117C368.644 84.6666 368.335 84.9272 368.023 85.19C366.615 86.377 365.15 87.6117 363.668 88.5957C361.853 89.8006 359.874 90.7289 357.747 90.7289C355.609 90.7289 353.62 89.7933 351.777 88.4031C349.933 87.0128 348.153 85.1054 346.415 83.0207C345.183 81.5417 343.945 79.939 342.71 78.3404C342.206 77.6882 341.703 77.0367 341.2 76.3945C339.453 74.1604 337.705 72.0194 335.913 70.2279L335.892 70.2071L335.873 70.1852C332.2 66.0531 328.891 63.0051 325.686 61.7231C324.112 61.0938 322.587 60.9003 321.054 61.2017C319.516 61.5045 317.891 62.3222 316.152 63.8436C312.689 66.8735 309.159 67.2318 306.025 67.5498C305.576 67.5953 305.136 67.6399 304.705 67.6915C302.963 67.9 301.359 68.2102 299.816 69.0288C298.285 69.8409 296.741 71.1936 295.211 73.5987L295.194 73.6249L295.176 73.65C293.32 76.2013 291.43 78.4544 289.521 80.0926C287.625 81.7206 285.602 82.8342 283.492 82.9023C281.325 82.9722 279.304 81.9363 277.461 79.7832C275.639 77.6549 273.927 74.3704 272.304 69.7388C268.641 60.5802 264.977 51.4546 261.313 42.3285L261.29 42.2704L261.288 42.2645C257.614 33.1144 253.941 23.9636 250.267 14.7794L250.259 14.759L250.252 14.7383C248.662 10.1973 247.046 7.16942 245.451 5.27905C243.872 3.40852 242.367 2.70853 240.944 2.66263C239.478 2.61534 237.887 3.25341 236.148 4.49969Z" fill="url(#paint0_linear_65_101)"/>
<defs>
<linearGradient id="paint0_linear_65_101" x1="-4.24219" y1="34.2981" x2="401.658" y2="39.8178" gradientUnits="userSpaceOnUse">
<stop stop-color="#1AA72A"/>
<stop offset="1" stop-color="#69D645"/>
</linearGradient>
</defs>
</svg>
