<svg width="10" height="17" viewBox="0 0 10 17" fill="none" xmlns="http://www.w3.org/2000/svg">
<path d="M0.441565 1.14009C0.655894 0.925644 0.946547 0.805176 1.24961 0.805176C1.55267 0.805176 1.84332 0.925644 2.05765 1.14009L8.91516 8.00336C9.12943 8.21787 9.24979 8.50877 9.24979 8.81208C9.24979 9.1154 9.12943 9.40629 8.91516 9.6208L2.05765 16.4841C1.84209 16.6924 1.55339 16.8077 1.25372 16.8051C0.954052 16.8025 0.667393 16.6822 0.455487 16.4701C0.243581 16.2581 0.123381 15.9712 0.120777 15.6712C0.118173 15.3713 0.233373 15.0824 0.441565 14.8666L6.49103 8.81208L0.441565 2.75753C0.227301 2.54302 0.106934 2.25213 0.106934 1.94881C0.106934 1.64549 0.227301 1.3546 0.441565 1.14009Z" fill="white"/>
</svg>
