<svg width="49" height="49" viewBox="0 0 49 49" fill="none" xmlns="http://www.w3.org/2000/svg">
<path d="M17.7218 18.1296C18.4376 17.4138 18.4376 16.2532 17.7218 15.5374C17.0059 14.8215 15.8453 14.8215 15.1295 15.5374C14.4136 16.2532 14.4136 17.4138 15.1295 18.1296C15.8453 18.8455 17.0059 18.8455 17.7218 18.1296Z" fill="black"/>
<path fill-rule="evenodd" clip-rule="evenodd" d="M15.8366 16.2445C15.5113 16.5698 15.5113 17.0972 15.8366 17.4225C16.1619 17.7478 16.6893 17.7478 17.0147 17.4225C17.34 17.0972 17.34 16.5698 17.0147 16.2445C16.6893 15.9191 16.1619 15.9191 15.8366 16.2445ZM14.4224 18.8367C13.316 17.7304 13.316 15.9366 14.4224 14.8302C15.5287 13.7239 17.3225 13.7239 18.4289 14.8302C19.5352 15.9366 19.5352 17.7304 18.4289 18.8367C17.3225 19.9431 15.5287 19.9431 14.4224 18.8367Z" fill="white"/>
<path d="M33.2755 33.6833C33.9913 32.9675 33.9913 31.8069 33.2755 31.0911C32.5596 30.3752 31.399 30.3752 30.6832 31.0911C29.9673 31.8069 29.9673 32.9675 30.6832 33.6833C31.399 34.3992 32.5596 34.3992 33.2755 33.6833Z" fill="black"/>
<path fill-rule="evenodd" clip-rule="evenodd" d="M31.3903 31.7982C31.065 32.1235 31.065 32.6509 31.3903 32.9762C31.7156 33.3016 32.243 33.3016 32.5683 32.9762C32.8937 32.6509 32.8937 32.1235 32.5683 31.7982C32.243 31.4729 31.7156 31.4729 31.3903 31.7982ZM29.9761 34.3905C28.8697 33.2841 28.8697 31.4903 29.9761 30.384C31.0824 29.2776 32.8762 29.2776 33.9826 30.384C35.0889 31.4903 35.0889 33.2841 33.9826 34.3905C32.8762 35.4968 31.0824 35.4968 29.9761 34.3905Z" fill="white"/>
<path fill-rule="evenodd" clip-rule="evenodd" d="M14.4224 34.3902C14.0318 33.9997 14.0318 33.3665 14.4224 32.976L32.5683 14.83C32.9589 14.4395 33.592 14.4395 33.9826 14.83C34.3731 15.2206 34.3731 15.8537 33.9826 16.2442L15.8366 34.3902C15.4461 34.7807 14.8129 34.7807 14.4224 34.3902Z" fill="white"/>
<path fill-rule="evenodd" clip-rule="evenodd" d="M24.2025 2.40771C11.9404 2.40771 2 12.3481 2 24.6102C2 36.8723 11.9404 46.8127 24.2025 46.8127C36.4646 46.8127 46.405 36.8723 46.405 24.6102C46.405 12.3481 36.4646 2.40771 24.2025 2.40771ZM0 24.6102C0 11.2435 10.8358 0.407715 24.2025 0.407715C37.5692 0.407715 48.405 11.2435 48.405 24.6102C48.405 37.9769 37.5692 48.8127 24.2025 48.8127C10.8358 48.8127 0 37.9769 0 24.6102Z" fill="white"/>
</svg>
