<svg width="25" height="24" viewBox="0 0 25 24" fill="none" xmlns="http://www.w3.org/2000/svg">
<path fill-rule="evenodd" clip-rule="evenodd" d="M3.25 12C3.25 11.4477 3.69772 11 4.25 11H20.75C21.3023 11 21.75 11.4477 21.75 12C21.75 12.5523 21.3023 13 20.75 13H4.25C3.69772 13 3.25 12.5523 3.25 12Z" fill="url(#paint0_linear_52_1388)"/>
<path fill-rule="evenodd" clip-rule="evenodd" d="M12.5 2.75C13.0523 2.75 13.5 3.19772 13.5 3.75V20.25C13.5 20.8023 13.0523 21.25 12.5 21.25C11.9477 21.25 11.5 20.8023 11.5 20.25V3.75C11.5 3.19772 11.9477 2.75 12.5 2.75Z" fill="url(#paint1_linear_52_1388)"/>
<defs>
<linearGradient id="paint0_linear_52_1388" x1="3.25" y1="11.5935" x2="21.7645" y2="12.2451" gradientUnits="userSpaceOnUse">
<stop stop-color="#1AA72A"/>
<stop offset="1" stop-color="#69D645"/>
</linearGradient>
<linearGradient id="paint1_linear_52_1388" x1="11.5" y1="8.23975" x2="13.504" y2="8.24057" gradientUnits="userSpaceOnUse">
<stop stop-color="#1AA72A"/>
<stop offset="1" stop-color="#69D645"/>
</linearGradient>
</defs>
</svg>
