<svg width="10" height="17" viewBox="0 0 10 17" fill="none" xmlns="http://www.w3.org/2000/svg">
<path d="M9.55844 16.4849C9.34411 16.6994 9.05345 16.8198 8.75039 16.8198C8.44733 16.8198 8.15668 16.6994 7.94235 16.4849L1.08484 9.62164C0.870575 9.40713 0.750209 9.11623 0.750209 8.81292C0.750209 8.5096 0.870575 8.21871 1.08484 8.0042L7.94235 1.14092C8.15791 0.932558 8.44661 0.817261 8.74628 0.819867C9.04595 0.822473 9.33261 0.942774 9.54451 1.15486C9.75642 1.36694 9.87662 1.65384 9.87922 1.95376C9.88183 2.25369 9.76663 2.54263 9.55844 2.75837L3.50897 8.81292L9.55844 14.8675C9.7727 15.082 9.89307 15.3729 9.89307 15.6762C9.89307 15.9795 9.7727 16.2704 9.55844 16.4849Z" fill="white"/>
</svg>
