<svg width="112" height="85" viewBox="0 0 112 85" fill="none" xmlns="http://www.w3.org/2000/svg">
<g clip-path="url(#clip0_52_12613)">
<path d="M90.0573 84.293H12.6093C9.27325 84.2955 6.07235 82.9748 3.70858 80.6207C1.3448 78.2665 0.0111193 75.071 0 71.735L0 12.851C0.0111193 9.51491 1.3448 6.31942 3.70858 3.96527C6.07235 1.61112 9.27325 0.290483 12.6093 0.292972H90.0573C93.3934 0.290483 96.5943 1.61112 98.9581 3.96527C101.322 6.31942 102.656 9.51491 102.667 12.851V30.967C102.667 31.8952 102.298 32.7855 101.642 33.4418C100.985 34.0982 100.095 34.467 99.1667 34.467C98.2384 34.467 97.3482 34.0982 96.6918 33.4418C96.0354 32.7855 95.6667 31.8952 95.6667 30.967V12.851C95.6667 9.78497 93.1513 7.29297 90.0573 7.29297H12.6093C9.51533 7.29297 7 9.78964 7 12.851V71.7303C7 74.7963 9.51533 77.2883 12.6093 77.2883H90.0573C93.1513 77.2883 95.6667 74.7916 95.6667 71.7303V58.141C95.667 57.6814 95.7578 57.2263 95.934 56.8018C96.1102 56.3772 96.3682 55.9916 96.6935 55.6668C97.0187 55.342 97.4047 55.0844 97.8294 54.9088C98.2542 54.7332 98.7094 54.643 99.169 54.6433C99.6286 54.6436 100.084 54.7345 100.508 54.9106C100.933 55.0868 101.318 55.3449 101.643 55.6701C101.968 55.9953 102.226 56.3813 102.401 56.8061C102.577 57.2308 102.667 57.686 102.667 58.1456V71.735C102.656 75.071 101.322 78.2665 98.9581 80.6207C96.5943 82.9748 93.3934 84.2955 90.0573 84.293Z" fill="url(#paint0_linear_52_12613)"/>
<path d="M104.22 60.9596H76.9993C67.9927 60.9596 60.666 53.633 60.666 44.6263C60.666 35.6196 67.9927 28.293 76.9993 28.293H104.22C106.282 28.2967 108.259 29.1175 109.717 30.5756C111.175 32.0337 111.996 34.0102 111.999 36.0723V53.185C111.999 57.469 108.509 60.9596 104.22 60.9596ZM76.9993 35.293C71.852 35.293 67.666 39.479 67.666 44.6263C67.666 49.7736 71.852 53.9596 76.9993 53.9596H104.22C104.427 53.9596 104.625 53.8775 104.771 53.7314C104.917 53.5852 104.999 53.387 104.999 53.1803V36.0676C104.999 35.8609 104.917 35.6627 104.771 35.5166C104.625 35.3704 104.427 35.2883 104.22 35.2883H76.9993V35.293Z" fill="url(#paint1_linear_52_12613)"/>
<path d="M77.0007 49.2933C79.578 49.2933 81.6673 47.204 81.6673 44.6266C81.6673 42.0493 79.578 39.96 77.0007 39.96C74.4233 39.96 72.334 42.0493 72.334 44.6266C72.334 47.204 74.4233 49.2933 77.0007 49.2933Z" fill="url(#paint2_linear_52_12613)"/>
</g>
<defs>
<linearGradient id="paint0_linear_52_12613" x1="-1.17267e-09" y1="25.2194" x2="102.872" y2="25.6978" gradientUnits="userSpaceOnUse">
<stop stop-color="#1AA72A"/>
<stop offset="1" stop-color="#69D645"/>
</linearGradient>
<linearGradient id="paint1_linear_52_12613" x1="60.666" y1="37.9866" x2="112.101" y2="38.2941" gradientUnits="userSpaceOnUse">
<stop stop-color="#1AA72A"/>
<stop offset="1" stop-color="#69D645"/>
</linearGradient>
<linearGradient id="paint2_linear_52_12613" x1="72.334" y1="42.7296" x2="81.6861" y2="42.7651" gradientUnits="userSpaceOnUse">
<stop stop-color="#1AA72A"/>
<stop offset="1" stop-color="#69D645"/>
</linearGradient>
<clipPath id="clip0_52_12613">
<rect width="112" height="84" fill="white" transform="translate(0 0.646484)"/>
</clipPath>
</defs>
</svg>
