<svg width="62" height="61" viewBox="0 0 62 61" fill="none" xmlns="http://www.w3.org/2000/svg">
<path d="M15.9828 1.04439C16.5516 1.60692 16.8711 2.36945 16.8711 3.16448C16.8711 3.95952 16.5516 4.72205 15.9828 5.28458L11.0416 10.1648H36.1122C41.1187 10.1648 46.0128 11.6311 50.1757 14.3782C54.3385 17.1254 57.583 21.03 59.4989 25.5984C61.4148 30.1667 61.9161 35.1936 60.9394 40.0434C59.9626 44.8931 57.5518 49.3479 54.0116 52.8443C50.4714 56.3408 45.961 58.7219 41.0506 59.6866C36.1402 60.6513 31.0505 60.1562 26.4251 58.2639C21.7996 56.3716 17.8462 53.1672 15.0647 49.0558C12.2832 44.9443 10.7986 40.1106 10.7986 35.1659C10.7986 34.3702 11.1186 33.6071 11.6883 33.0445C12.2579 32.4818 13.0306 32.1658 13.8362 32.1658C14.6418 32.1658 15.4144 32.4818 15.9841 33.0445C16.5538 33.6071 16.8738 34.3702 16.8738 35.1659C16.8738 38.9239 18.0021 42.5975 20.1161 45.7222C22.23 48.8469 25.2346 51.2822 28.75 52.7204C32.2653 54.1585 36.1335 54.5348 39.8654 53.8016C43.5972 53.0685 47.0252 51.2588 49.7157 48.6015C52.4063 45.9442 54.2385 42.5586 54.9808 38.8728C55.7232 35.187 55.3422 31.3665 53.8861 27.8946C52.43 24.4226 49.9641 21.4551 46.8004 19.3673C43.6367 17.2794 39.9171 16.1651 36.1122 16.1651H11.0416L15.9828 21.0453C16.5193 21.614 16.8115 22.3662 16.7976 23.1434C16.7837 23.9207 16.4649 24.6623 15.9083 25.2119C15.3518 25.7616 14.601 26.0765 13.814 26.0902C13.027 26.1039 12.2654 25.8154 11.6896 25.2855L1.56415 15.285C0.995298 14.7225 0.675781 13.96 0.675781 13.1649C0.675781 12.3699 0.995298 11.6074 1.56415 11.0448L11.6896 1.04439C12.2591 0.482565 13.0312 0.166992 13.8362 0.166992C14.6412 0.166992 15.4132 0.482565 15.9828 1.04439Z" fill="white"/>
</svg>
