<svg width="52" height="61" viewBox="0 0 52 61" fill="none" xmlns="http://www.w3.org/2000/svg">
<path d="M5.8685 0.500682C5.66899 0.495695 5.46974 0.518087 5.27631 0.567232C2.659 1.23938 1.0402 3.20243 0.662996 5.50411C0.285919 7.80578 0.939928 10.4023 2.28218 12.9375C4.92568 17.9301 10.363 22.7834 17.3361 23.9036C16.6195 23.0452 15.9247 22.0839 15.2574 21.0455C10.2746 19.4399 6.31315 15.6366 4.31421 11.8614C3.13827 9.64046 2.67331 7.45566 2.9321 5.87607C3.19102 4.29649 3.96319 3.27818 5.84806 2.79406C5.85636 2.79188 5.85675 2.78971 5.85981 2.78729C5.85151 2.76902 5.87323 2.77707 5.85981 2.78729C5.86531 2.79798 5.87296 2.80742 5.88229 2.815C5.94961 2.87798 6.09804 3.10113 6.16421 3.47157C6.29654 4.21295 6.11145 5.46336 5.12507 6.75183L6.95081 8.14952C8.28156 6.41103 8.69441 4.56192 8.42744 3.06754C8.29408 2.32028 7.99365 1.64137 7.45307 1.13566C7.04763 0.756409 6.46349 0.513966 5.8685 0.500682ZM46.1314 0.500682C45.5364 0.513966 44.9524 0.756537 44.5469 1.13579C44.0063 1.64162 43.7059 2.32041 43.5724 3.06767C43.3055 4.56205 43.7184 6.41103 45.049 8.14965L46.8749 6.75196C45.8885 5.46349 45.7034 4.21308 45.8357 3.4717C45.9019 3.10126 46.0503 2.87811 46.1176 2.81513C46.1269 2.80751 46.1346 2.79808 46.1401 2.78741C46.1267 2.77719 46.1484 2.76915 46.1401 2.78741C46.1432 2.78984 46.1436 2.79201 46.1519 2.79418C48.0367 3.2783 48.8089 4.29636 49.0678 5.87607C49.3266 7.45566 48.8617 9.64046 47.6857 11.8614C45.6868 15.6366 41.7253 19.44 36.7426 21.0455C36.0754 22.0839 35.3803 23.0452 34.6638 23.9036C41.6369 22.7834 47.0743 17.9301 49.7178 12.9375C51.06 10.4023 51.714 7.80578 51.3369 5.50411C50.9597 3.2023 49.3409 1.23938 46.7236 0.567232C46.5302 0.518087 46.3309 0.495695 46.1314 0.500682ZM10.8551 1.48591C11.1292 6.15249 12.9959 12.0969 15.5222 16.9195C16.8898 19.5307 18.4442 21.8161 19.9624 23.3938C21.4807 24.9716 22.9343 25.7556 23.9562 25.7556H28.0437C29.0656 25.7556 30.5193 24.9716 32.0375 23.3938C33.5557 21.8161 35.1101 19.5307 36.4778 16.9195C39.004 12.0968 40.8706 6.15262 41.1449 1.48591H10.8551ZM23.062 28.055V30.0988H28.9379V28.055H23.062ZM23.8853 32.3981C23.5713 35.715 22.2508 39.7905 20.7638 42.106H31.2361C29.7493 39.7905 28.4286 35.715 28.1146 32.3981H23.8853ZM18.9745 44.4052V46.1936H33.0255V44.4052H18.9745ZM14.8869 48.4928V60.5H37.113V48.4928H14.8869ZM17.8249 51.4307H34.1751V57.5621H17.8249V51.4307Z" fill="white"/>
</svg>
