<svg width="61" height="62" viewBox="0 0 61 62" fill="none" xmlns="http://www.w3.org/2000/svg">
<path d="M54.8662 12.9191C52.0987 9.02823 48.464 5.86141 44.2608 3.67881C40.0576 1.4962 35.4058 0.360078 30.6875 0.363779C15.2502 0.363779 2.55497 12.2819 0.981939 27.5771L0.686106 30.456L6.34675 31.0613L6.63974 28.1795C7.17028 23.0823 9.25 18.2808 12.5888 14.4447C15.9277 10.6086 20.3591 7.92905 25.2652 6.77989C30.1712 5.63073 35.3071 6.06921 39.9567 8.03419C44.6063 9.99917 48.5376 13.3927 51.2024 17.7414H46.3325V23.5339H60.5553V3.26004H54.8662V12.9191ZM27.843 13.397V16.2932C25.5797 16.2932 23.4092 17.2087 21.8088 18.8381C20.2084 20.4676 19.3093 22.6776 19.3093 24.982C19.3093 27.2864 20.2084 29.4965 21.8088 31.1259C23.4092 32.7554 25.5797 33.6708 27.843 33.6708H33.5321C34.2865 33.6708 35.01 33.976 35.5435 34.5191C36.0769 35.0623 36.3766 35.7989 36.3766 36.5671C36.3766 37.3352 36.0769 38.0719 35.5435 38.6151C35.01 39.1582 34.2865 39.4633 33.5321 39.4633H20.7316V45.2559H27.843V48.1521H33.5321V45.2559C34.6527 45.2559 35.7624 45.0311 36.7978 44.5945C37.8331 44.1578 38.7738 43.5178 39.5663 42.711C40.3587 41.9042 40.9873 40.9463 41.4161 39.8921C41.845 38.838 42.0657 37.7081 42.0657 36.5671C42.0657 35.4261 41.845 34.2962 41.4161 33.242C40.9873 32.1879 40.3587 31.23 39.5663 30.4232C38.7738 29.6163 37.8331 28.9763 36.7978 28.5397C35.7624 28.103 34.6527 27.8783 33.5321 27.8783H27.843C27.0886 27.8783 26.365 27.5731 25.8316 27.03C25.2981 26.4868 24.9984 25.7502 24.9984 24.982C24.9984 24.2139 25.2981 23.4772 25.8316 22.9341C26.365 22.3909 27.0886 22.0858 27.843 22.0858H40.6434V16.2932H33.5321V13.397H27.843ZM55.0283 30.4878L54.7325 33.3696C54.2019 38.4668 52.1222 43.2683 48.7834 47.1044C45.4445 50.9405 41.0131 53.6201 36.107 54.7692C31.201 55.9184 26.0651 55.4799 21.4155 53.5149C16.7659 51.5499 12.8346 48.1565 10.1698 43.8077H15.0425V38.0152H0.8198V58.2891H6.50889V48.63C9.2764 52.5209 12.9111 55.6877 17.1143 57.8703C21.3174 60.0529 25.9693 61.189 30.6875 61.1853C46.122 61.1853 58.8201 49.2672 60.3903 33.972L60.6861 31.0931L55.0283 30.4878Z" fill="white"/>
</svg>
