<svg width="62" height="61" viewBox="0 0 62 61" fill="none" xmlns="http://www.w3.org/2000/svg">
<path d="M35.0369 0.501491C30.0192 0.563036 24.8139 2.46288 20.0351 6.39168H30.353V11.9293C37.1179 8.11471 45.046 7.87904 51.3732 11.9331L49.0411 13.1794L57.3355 19.6828L56.8546 9.0002L53.4687 10.8114C49.0078 4.19321 42.4747 0.584065 35.534 0.501491C35.3684 0.499503 35.2025 0.499503 35.0369 0.501491ZM0.673798 8.78774V36.0667H27.9568V8.78774H0.673798ZM7.12098 12.1253H24.619V29.9401H22.2189V14.5216H7.12111L7.12098 12.1253ZM7.54975 17.0139L19.1016 28.7903L17.3907 30.4692L5.83878 18.6928L7.54975 17.0139ZM34.0473 24.9315V52.2145H61.3262V24.9317L34.0473 24.9315ZM40.4904 28.2734H57.9885V46.0839H55.5926V30.6692H40.4908L40.4904 28.2734ZM40.9191 33.1578L52.475 44.9381L50.7643 46.6129L39.2084 34.8366L40.9191 33.1578ZM5.20588 41.3198L5.68671 52.0022L8.67578 50.4032C16.4879 61.7683 30.472 64.0568 41.965 54.6107H31.6511V49.0731C24.9734 52.8402 17.1622 53.1177 10.8755 49.2254L13.4958 47.8229L5.20588 41.3198Z" fill="white"/>
</svg>
