<svg width="40" height="61" viewBox="0 0 40 61" fill="none" xmlns="http://www.w3.org/2000/svg">
<path d="M37.8934 34.5953C37.5029 33.6918 37.0394 32.8198 36.5071 31.9875V16.9122C36.5093 14.8054 36.0826 12.719 35.2517 10.7733C34.4208 8.82754 33.202 7.06095 31.6657 5.57534C30.1384 4.08149 28.3215 2.89718 26.3202 2.09102C24.3188 1.28486 22.1729 0.872892 20.0066 0.878973C17.8391 0.873927 15.6919 1.28633 13.6892 2.0924C11.6864 2.89846 9.86766 4.08221 8.33786 5.57534C6.80224 7.06089 5.58472 8.8277 4.7557 10.7736C3.92668 12.7195 3.50261 14.806 3.50802 16.9122V19.1095H10.1155V16.9122C10.1155 14.355 11.1394 11.9328 13.0173 10.1161C13.9333 9.22134 15.0226 8.51209 16.2223 8.02938C17.422 7.54667 18.7082 7.30009 20.0066 7.30391C22.6266 7.30836 25.1381 8.32186 26.9915 10.1226C28.8448 11.9233 29.8891 14.3646 29.8957 16.9122V25.6919C26.8928 23.9513 23.4601 23.0364 19.9642 23.0447C17.4087 23.0397 14.8774 23.5263 12.5161 24.4765C10.1547 25.4266 8.01002 26.8216 6.2054 28.581C4.39667 30.3361 2.96266 32.4217 1.98587 34.7177C1.00907 37.0137 0.508756 39.4749 0.513708 41.9596C0.509478 44.4422 1.01017 46.9012 1.98698 49.1949C2.96379 51.4887 4.39742 53.572 6.2054 55.325C8.01033 57.0847 10.1544 58.481 12.515 59.434C14.8756 60.387 17.4062 60.878 19.9622 60.8789C22.5181 60.8798 25.0492 60.3905 27.4104 59.4391C29.7717 58.4877 31.9168 57.0928 33.723 55.3344C35.5315 53.5795 36.9655 51.4943 37.9423 49.1986C38.9191 46.9029 39.4194 44.4421 39.4146 41.9577C39.4146 39.408 38.9037 36.9276 37.8895 34.5935L37.8934 34.5953ZM19.968 54.4476C12.8881 54.4476 7.12509 48.8438 7.12509 41.9596C7.12509 35.0753 12.8881 29.4715 19.968 29.4715C23.3734 29.474 26.6386 30.7905 29.0465 33.1319C31.4545 35.4734 32.8084 38.6483 32.811 41.9596C32.8064 45.2702 31.4518 48.444 29.0443 50.785C26.6368 53.126 23.3728 54.4431 19.968 54.4476ZM25.4823 42.0177C25.4823 49.0763 14.5848 49.0763 14.5848 42.0177C14.5848 34.9478 25.4823 34.9478 25.4823 42.0177Z" fill="white"/>
</svg>
