<svg width="62" height="61" viewBox="0 0 62 61" fill="none" xmlns="http://www.w3.org/2000/svg">
<path d="M30.5664 0.385254C13.7487 0.385254 0.0664062 13.8433 0.0664062 30.3853V42.8143C0.0664062 45.8863 2.80226 48.3853 6.16641 48.3853H9.21641C10.0253 48.3853 10.8011 48.0692 11.3731 47.5066C11.9451 46.944 12.2664 46.1809 12.2664 45.3853V29.9563C12.2664 29.1606 11.9451 28.3975 11.3731 27.8349C10.8011 27.2723 10.0253 26.9563 9.21641 26.9563H6.44701C8.14281 15.3463 18.2993 6.38525 30.5664 6.38525C42.8335 6.38525 52.99 15.3463 54.6858 26.9563H51.9164C51.1075 26.9563 50.3317 27.2723 49.7597 27.8349C49.1877 28.3975 48.8664 29.1606 48.8664 29.9563V48.3853C48.8664 51.6943 46.1306 54.3853 42.7664 54.3853H36.6664V51.3853H24.4664V60.3853H42.7664C49.4947 60.3853 54.9664 55.0033 54.9664 48.3853C58.3306 48.3853 61.0664 45.8863 61.0664 42.8143V30.3853C61.0664 13.8433 47.3841 0.385254 30.5664 0.385254Z" fill="white"/>
</svg>
