<svg width="161" height="45" viewBox="0 0 161 45" fill="none" xmlns="http://www.w3.org/2000/svg">
<path fill-rule="evenodd" clip-rule="evenodd" d="M117.016 37.1841C111.238 37.1841 107.627 33.8322 107.627 28.4055C107.627 22.8191 110.917 19.3077 116.294 19.3077H116.775C117.417 19.3077 118.38 19.3077 119.664 19.4673V12.6838H123.436V36.5456C123.355 36.5456 119.744 37.1841 117.016 37.1841ZM116.936 22.2605C113.244 22.2605 111.479 24.2556 111.479 28.3257C111.479 31.9967 113.645 34.2313 117.096 34.2313C117.738 34.2313 118.54 34.1515 119.584 34.0717V22.4999C118.54 22.3403 117.658 22.2605 116.936 22.2605Z" fill="white"/>
<path fill-rule="evenodd" clip-rule="evenodd" d="M65.0982 36.6254L54.9068 18.8288V36.6254H51.376V14.0405H56.3513L66.5426 31.6775V14.0405H70.1537V36.6254H65.0982Z" fill="white"/>
<path fill-rule="evenodd" clip-rule="evenodd" d="M97.6787 36.9448C95.9935 36.9448 94.1478 36.7852 91.9811 36.3064L91.7404 36.2266V33.1141L92.0614 33.194C93.9071 33.593 95.5923 33.9122 97.1972 33.9122C98.4811 33.9122 101.611 33.6728 101.611 31.7575C101.611 30.1614 99.5243 29.7623 97.7589 29.4431H97.6787C97.3577 29.3633 97.0367 29.2835 96.796 29.2835C94.3083 28.6451 91.6602 27.6874 91.6602 24.3356C91.6602 21.0635 94.2281 19.228 98.7219 19.228C100.889 19.228 102.413 19.4674 103.697 19.6271L104.339 19.7069V22.7395L104.018 22.6597C102.574 22.4202 100.889 22.101 99.2836 22.101C97.5182 22.101 95.3515 22.4202 95.3515 24.0163C95.3515 25.2932 97.1169 25.6923 99.1231 26.1711C101.932 26.8095 105.382 27.5278 105.382 31.3584C105.463 34.9497 102.654 36.9448 97.6787 36.9448Z" fill="white"/>
<path fill-rule="evenodd" clip-rule="evenodd" d="M134.029 36.9448C130.096 36.9448 126.485 36.2265 126.485 31.2786C126.485 25.8518 132.103 25.8518 135.473 25.8518C135.794 25.8518 137.399 25.9316 137.88 25.9316C137.88 22.899 137.8 22.1808 133.387 22.1808C131.621 22.1808 129.695 22.5 127.93 22.8192L127.609 22.899V19.8664L127.85 19.7866C129.856 19.3876 131.782 19.1482 133.708 19.1482C138.041 19.1482 141.652 19.5472 141.652 24.8942V36.4659H141.411C138.362 36.865 136.035 36.9448 134.029 36.9448ZM135.312 28.5652C132.103 28.5652 130.096 29.0441 130.096 31.4382C130.096 34.1516 132.664 34.391 135.072 34.391C135.954 34.391 137.559 34.3112 138.041 34.2314V28.645C137.319 28.5652 135.553 28.5652 135.312 28.5652Z" fill="white"/>
<path fill-rule="evenodd" clip-rule="evenodd" d="M80.8254 36.9448C76.8933 36.9448 73.2822 36.2265 73.2822 31.2786C73.2822 25.8518 78.8995 25.8518 82.2698 25.8518C82.5908 25.8518 84.1958 25.9316 84.6772 25.9316C84.6772 22.899 84.597 22.1808 80.1834 22.1808C78.418 22.1808 76.4921 22.5 74.7267 22.8192L74.4057 22.899V19.8664L74.6464 19.7866C76.6526 19.3876 78.5785 19.1482 80.5044 19.1482C84.8377 19.1482 88.4488 19.5472 88.4488 24.8942V36.4659H88.2081C85.239 36.865 82.9118 36.9448 80.8254 36.9448ZM82.1896 28.5652C78.9797 28.5652 76.9736 29.0441 76.9736 31.4382C76.9736 34.1516 79.5415 34.391 81.9489 34.391C82.8316 34.391 84.4365 34.3112 84.918 34.2314V28.645C84.1958 28.5652 82.4303 28.5652 82.1896 28.5652Z" fill="white"/>
<path fill-rule="evenodd" clip-rule="evenodd" d="M156.66 44.2869V36.865C155.215 37.1044 154.413 37.1044 153.771 37.1044C152.246 37.1044 150.641 36.7852 149.277 36.2266C146.388 35.0295 144.703 31.9969 144.703 28.0864C144.703 26.1711 145.185 22.5799 148.394 20.6646C149.999 19.7069 151.845 19.3079 154.734 19.3079C155.777 19.3079 157.141 19.3877 158.425 19.4675L160.592 19.5473V42.5312L156.66 44.2869ZM154.413 22.2607C150.561 22.2607 148.635 24.176 148.635 28.0864C148.635 33.0344 151.524 34.0718 154.012 34.0718C154.573 34.0718 155.296 34.0718 156.74 33.9122V22.3405C155.536 22.2607 155.055 22.2607 154.413 22.2607Z" fill="white"/>
<path fill-rule="evenodd" clip-rule="evenodd" d="M33.5461 0.713135L23.8472 27.3002C23.5985 27.9804 22.9768 28.4132 22.2929 28.5368H32.5513C33.3596 28.5368 34.0435 28.0422 34.2922 27.3002L43.991 0.713135H33.5461ZM21.4846 28.104C22.1064 28.104 22.6037 27.7949 22.9146 27.362C22.9768 27.3002 23.039 27.1766 23.1633 26.9292L26.7071 17.16L24.6554 11.4716C24.4067 10.8533 23.785 10.4205 23.039 10.4205C22.4172 10.4205 21.9198 10.7297 21.609 11.1625C21.5468 11.2243 21.4225 11.4098 21.3603 11.5953L17.8165 21.3645L19.9303 27.0529C20.1168 27.6712 20.7386 28.104 21.4846 28.104ZM11.8479 9.9877H22.2307C21.4846 10.0495 20.8007 10.5442 20.5521 11.2243L10.8532 37.8114H0.408203L10.1071 11.2243C10.3558 10.5442 11.0397 9.9877 11.8479 9.9877Z" fill="white"/>
</svg>
