<svg width="169" height="41" viewBox="0 0 169 41" fill="none" xmlns="http://www.w3.org/2000/svg">
<path d="M13.1327 39.612H1.60303V8.53491L13.1426 20.0427L13.1327 39.612Z" fill="white"/>
<path d="M1.60303 1.18958V5.59681L25.1731 29.1021L33.4595 20.8385L13.8177 1.18958H1.60303Z" fill="white"/>
<path d="M48.9886 1.18958V39.6305H37.2649V17.1658L34.9938 19.4306L26.8916 11.3507L37.0808 1.18958H48.9886Z" fill="white"/>
<path d="M85.5128 26.1235L85.4956 19.0413L82.0116 24.876H80.7766L77.3099 19.1931V26.1247H74.7393V14.3207H77.0054L81.4359 21.6563L85.7988 14.3207H88.0478L88.0821 26.1247H85.5128V26.1235Z" fill="white"/>
<path d="M94.3735 14.3195V26.1235H91.6334V16.5108H89.2666V14.3182H94.3735V14.3195Z" fill="white"/>
<path d="M104.029 16.5108V19.6302H109.508V21.8228H104.029V26.1235H101.29V14.3195H110.236V16.5121H104.029V16.5108Z" fill="white"/>
<path d="M111.537 15.3649C111.232 15.0846 111.08 14.7357 111.08 14.3194C111.08 13.9032 111.232 13.5555 111.537 13.2739C111.841 12.9936 112.235 12.8528 112.72 12.8528C113.205 12.8528 113.599 12.9874 113.904 13.258C114.208 13.5286 114.36 13.8652 114.36 14.2692C114.36 14.7075 114.208 15.0699 113.904 15.3563C113.599 15.6428 113.205 15.786 112.72 15.786C112.236 15.786 111.841 15.6453 111.537 15.3649ZM111.402 17.0507H114.04V26.1235H111.402V17.0507Z" fill="white"/>
<path d="M124.415 17.9285C125.108 18.603 125.454 19.6032 125.454 20.9303V26.1247H122.816V21.3355C122.816 20.6156 122.658 20.0794 122.342 19.7244C122.027 19.3706 121.57 19.1931 120.972 19.1931C120.307 19.1931 119.777 19.3988 119.383 19.8089C118.987 20.219 118.791 20.8287 118.791 21.6391V26.1247H116.153V17.0519H118.672V18.1145C119.022 17.7326 119.455 17.4375 119.974 17.2294C120.492 17.0213 121.062 16.9172 121.682 16.9172C122.81 16.916 123.721 17.2539 124.415 17.9285Z" fill="white"/>
<path d="M134.417 17.9199C135.172 18.5883 135.55 19.5983 135.55 20.9474V26.1247H133.082V24.9947C132.586 25.8382 131.661 26.2594 130.308 26.2594C129.61 26.2594 129.003 26.1418 128.49 25.9056C127.977 25.6693 127.586 25.3436 127.316 24.9274C127.045 24.5112 126.909 24.0398 126.909 23.511C126.909 22.6675 127.227 22.0052 127.864 21.5216C128.501 21.038 129.485 20.7968 130.815 20.7968H132.912C132.912 20.2239 132.737 19.782 132.388 19.4735C132.038 19.1637 131.514 19.0095 130.815 19.0095C130.331 19.0095 129.854 19.0854 129.386 19.2372C128.919 19.389 128.521 19.5947 128.194 19.853L127.248 18.0154C127.744 17.6677 128.338 17.3972 129.032 17.2062C129.725 17.0152 130.437 16.9197 131.171 16.9197C132.58 16.916 133.661 17.2502 134.417 17.9199ZM132.168 24.1757C132.518 23.9676 132.766 23.6615 132.912 23.2563V22.3284H131.103C130.02 22.3284 129.48 22.6822 129.48 23.391C129.48 23.7277 129.612 23.9958 129.878 24.1916C130.143 24.3887 130.506 24.4867 130.968 24.4867C131.418 24.4879 131.818 24.3838 132.168 24.1757Z" fill="white"/>
<path d="M145.856 17.9285C146.55 18.603 146.896 19.6032 146.896 20.9303V26.1247H144.258V21.3355C144.258 20.6156 144.099 20.0794 143.784 19.7244C143.468 19.3706 143.012 19.1931 142.414 19.1931C141.748 19.1931 141.218 19.3988 140.824 19.8089C140.429 20.219 140.232 20.8287 140.232 21.6391V26.1247H137.594V17.0519H140.113V18.1145C140.463 17.7326 140.897 17.4375 141.416 17.2294C141.934 17.0213 142.503 16.9172 143.123 16.9172C144.253 16.916 145.162 17.2539 145.856 17.9285Z" fill="white"/>
<path d="M150.828 25.6595C150.056 25.2604 149.452 24.707 149.018 23.9982C148.584 23.2894 148.368 22.4863 148.368 21.5865C148.368 20.6867 148.585 19.8836 149.018 19.1747C149.452 18.4659 150.056 17.9125 150.828 17.5134C151.6 17.1143 152.47 16.9148 153.44 16.9148C154.398 16.9148 155.235 17.1143 155.952 17.5134C156.668 17.9125 157.189 18.483 157.516 19.2249L155.469 20.3206C154.996 19.4894 154.314 19.0731 153.423 19.0731C152.736 19.0731 152.166 19.2984 151.715 19.7477C151.265 20.197 151.039 20.8103 151.039 21.5852C151.039 22.3614 151.265 22.9735 151.715 23.4228C152.166 23.8721 152.736 24.0974 153.423 24.0974C154.325 24.0974 155.007 23.6811 155.469 22.8499L157.516 23.9627C157.189 24.6825 156.668 25.2445 155.952 25.6485C155.236 26.0537 154.399 26.2557 153.44 26.2557C152.47 26.2581 151.6 26.0586 150.828 25.6595Z" fill="white"/>
<path d="M167.442 22.3296H160.56C160.684 22.8915 160.978 23.3359 161.439 23.6615C161.901 23.9872 162.477 24.1512 163.164 24.1512C163.638 24.1512 164.058 24.0814 164.424 23.9407C164.789 23.7999 165.131 23.5783 165.446 23.2747L166.849 24.7927C165.993 25.7709 164.742 26.2594 163.095 26.2594C162.069 26.2594 161.162 26.0598 160.373 25.6607C159.583 25.2616 158.974 24.7083 158.546 23.9994C158.117 23.2906 157.904 22.4875 157.904 21.5877C157.904 20.7001 158.115 19.8982 158.538 19.1845C158.961 18.4708 159.541 17.9138 160.28 17.5147C161.018 17.1156 161.844 16.916 162.758 16.916C163.648 16.916 164.454 17.107 165.176 17.489C165.898 17.8709 166.464 18.4194 166.875 19.1331C167.286 19.8468 167.493 20.6756 167.493 21.6207C167.493 21.655 167.475 21.8913 167.442 22.3296ZM161.27 19.4122C160.864 19.7489 160.616 20.2104 160.526 20.7944H165.007C164.916 20.2214 164.669 19.7636 164.263 19.4196C163.856 19.0768 163.361 18.9054 162.775 18.9054C162.177 18.9054 161.676 19.0743 161.27 19.4122Z" fill="white"/>
<path d="M62.5541 1.18958H61.6948V39.6305H62.5541V1.18958Z" fill="white"/>
</svg>
