<svg width="201" height="17" viewBox="0 0 201 17" fill="none" xmlns="http://www.w3.org/2000/svg">
<path fill-rule="evenodd" clip-rule="evenodd" d="M5.29639 14.0867C5.29639 15.1914 5.61841 15.4439 7.67856 15.4439V16.1382H0.5V15.4439C1.91632 15.4439 2.39943 15.3175 2.39943 14.1183V2.85056C2.39943 1.65112 1.91632 1.52479 0.5 1.52479V0.830468H12.5395L12.604 5.02824H12.0245C11.7025 1.87214 10.8977 1.58824 7.90398 1.58824H5.26433V7.83754H7.3888C9.41689 7.83754 9.54573 7.52182 9.70664 5.94377H10.2861V10.5203H9.70664C9.54573 8.94228 9.41689 8.658 7.3888 8.658H5.26433V14.0868H5.29658L5.29639 14.0867ZM14.0846 16.1382V15.4439C15.5011 15.4439 15.9841 15.3175 15.9841 14.1183V2.85056C15.9841 1.65112 15.5011 1.52479 14.0846 1.52479V0.830468H20.7805V1.52498C19.3639 1.52498 18.881 1.65131 18.881 2.85075V14.1185C18.881 15.3177 19.3639 15.444 20.7805 15.444V16.1384H14.0844L14.0846 16.1382ZM35.9746 16.3907L25.2871 3.41856V14.0552C25.2871 15.2863 26.1562 15.4755 27.6372 15.4755V16.17H21.9715V15.4755C23.4522 15.4755 24.2571 15.2863 24.2571 14.0552V2.25075C23.581 1.55642 23.0981 1.52479 21.9715 1.52479V0.830468H26.9934L35.1698 11.1514V2.91363C35.1698 1.68275 34.3008 1.49335 32.8199 1.49335V0.830468H38.5176V1.52498C37.037 1.52498 36.2321 1.71438 36.2321 2.94544V16.391H35.9746V16.3907ZM43.604 16.1382H37.9704V15.4439C39.4512 15.4439 40.1273 15.2545 40.6101 13.992L45.6964 0.672701H47.1127L52.5852 14.0867C53.0681 15.2861 53.2934 15.4122 54.4201 15.4122V16.1066H47.8854V15.4122C49.8812 15.4122 50.0744 15.2545 49.5913 14.0867L47.982 10.0152H43.0888L41.6404 13.9603C41.1898 15.1598 41.8979 15.4122 43.6362 15.4122V16.1382H43.604ZM43.3786 9.226H47.6277L45.4066 3.73428L43.3786 9.226ZM69.0992 16.3907L58.444 3.41856V14.0552C58.444 15.2863 59.3131 15.4755 60.7939 15.4755V16.17H55.2569V15.4755C56.6091 15.4755 57.4138 15.2863 57.4138 14.0552V2.28238C56.6414 1.58805 56.0619 1.52479 54.7744 1.52479V0.830468H60.1178L68.2943 11.1514V2.91363C68.2943 1.68275 67.4252 1.49335 65.9446 1.49335V0.830468H71.6102V1.52498C70.1294 1.52498 69.3247 1.71438 69.3247 2.94544V16.391H69.0992V16.3907ZM84.9051 0.799026H85.2915L85.5167 5.3754L84.9374 5.40703C84.551 2.78749 83.1347 1.39865 80.5271 1.39865C77.63 1.39865 75.441 3.82898 75.441 7.55326C75.441 12.3192 78.499 15.0334 81.718 15.0334C83.1025 15.0334 84.3579 14.6548 85.581 13.3609L86.0319 13.8026C85.0338 15.1914 83.0702 16.3592 80.4304 16.3592C76.5032 16.3592 72.5116 13.4554 72.5116 8.59475C72.5114 3.89205 76.1489 0.578003 80.5594 0.578003C82.6518 0.578003 83.7463 1.46172 84.3256 1.46172C84.5831 1.46172 84.7763 1.24089 84.9051 0.799026ZM87.3194 16.1382V15.4439C88.7359 15.4439 89.2188 15.3175 89.2188 14.1183V2.85056C89.2188 1.65112 88.7359 1.52479 87.3194 1.52479V0.830468H94.0152V1.52498C92.5989 1.52498 92.1157 1.65131 92.1157 2.85075V14.1185C92.1157 15.3177 92.5989 15.444 94.0152 15.444V16.1384L87.3194 16.1382ZM100.325 16.1382H95.0774V15.4439C96.2364 15.4439 96.848 15.2545 97.3309 13.992L102.417 0.672701H103.833L109.306 14.0867C109.789 15.2861 110.014 15.4122 111.141 15.4122V16.1066H104.606V15.4122C106.602 15.4122 106.795 15.2545 106.312 14.0867L104.703 10.0152H99.8099L98.3611 13.9603C97.9104 15.1598 98.6188 15.4122 100.357 15.4122V16.1382H100.325ZM100.099 9.226H104.349L102.16 3.73428L100.099 9.226ZM112.235 16.1382V15.4439C113.652 15.4439 114.135 15.3175 114.135 14.1183V2.85056C114.135 1.65112 113.652 1.52479 112.235 1.52479V0.830468H118.899V1.52498C117.483 1.52498 117.032 1.65131 117.032 2.85075V14.2132C117.032 15.223 117.547 15.3494 118.384 15.3494H119.189C122.215 15.3494 123.18 14.9075 124.017 11.5304L124.597 11.5934L124.114 16.1069H112.235V16.1386V16.1382ZM144.684 0.830468L144.748 5.2807H144.169C143.847 1.99828 143.042 1.58824 140.048 1.58824H139.083V14.0868C139.083 15.2863 139.533 15.444 141.465 15.444V16.1384H133.803V15.444C135.735 15.444 136.218 15.2547 136.218 14.0868V1.58805H135.252C132.258 1.58805 131.453 1.99828 131.131 5.2807H130.552L130.617 0.830468H144.684ZM146.197 16.1384V15.4439C147.613 15.4439 148.096 15.3175 148.096 14.1183V2.85056C148.096 1.65112 147.613 1.52479 146.197 1.52479V0.830468H152.893V1.52498C151.476 1.52498 150.993 1.65131 150.993 2.85075V14.1185C150.993 15.3177 151.476 15.444 152.893 15.444V16.1384H146.197ZM173.045 0.830282V1.52498C171.628 1.52498 171.016 1.58824 171.145 2.81912L172.368 14.1815C172.497 15.3494 172.948 15.4755 174.364 15.4755V16.17H167.701V15.4755C169.085 15.4755 169.568 15.3494 169.471 14.1815L168.216 2.25056L163.29 16.4221H163.097L158.268 2.21931L157.109 14.1497C156.981 15.3492 157.818 15.4753 159.234 15.4753V16.1698H154.019V15.4753C155.436 15.4753 155.919 15.2545 156.015 14.1497L157.238 2.78731C157.367 1.58805 156.755 1.49335 155.339 1.49335V0.830468H160.811L164.095 11.2775L167.636 0.830468H173.044L173.045 0.830282ZM185.502 10.52H184.923C184.762 8.94191 184.633 8.65763 182.605 8.65763H180.223V14.2128C180.223 15.2227 180.738 15.349 181.575 15.349H182.863C185.889 15.349 186.854 14.9071 187.691 11.53L188.271 11.5931L187.724 16.1066H175.427V15.412C176.843 15.412 177.326 15.2859 177.326 14.0865V2.85056C177.326 1.65112 176.843 1.52479 175.426 1.52479V0.830468H187.241L187.305 4.64945H186.726C186.372 1.93503 185.663 1.61949 182.573 1.61949H180.255V7.83717H182.637C184.665 7.83717 184.794 7.52163 184.955 5.94358H185.535V10.5201H185.502L185.502 10.52ZM197.928 12.9817C197.928 11.5931 197.027 10.8987 195.482 10.0465L193.003 8.78396C191.136 7.80554 190.042 6.73242 190.042 4.80721C190.041 2.4087 192.134 0.578003 194.87 0.578003C196.737 0.578003 197.703 1.46172 198.25 1.46172C198.604 1.46172 198.765 1.24089 198.926 0.799026H199.377L199.602 5.09149L199.023 5.12312C198.701 3.03977 197.188 1.4301 195.063 1.4301C193.454 1.4301 192.391 2.37707 192.391 3.70265C192.391 5.15456 193.518 5.75419 194.773 6.41707L196.898 7.52163C198.894 8.59475 200.31 9.66786 200.31 11.7194C200.31 14.4338 197.928 16.3592 194.967 16.3592C192.874 16.3592 191.844 15.3806 191.297 15.3806C190.943 15.3806 190.75 15.6963 190.589 16.1698H190.138L189.816 11.6247L190.395 11.5616C190.846 14.4022 192.842 15.57 194.838 15.57C196.512 15.5384 197.928 14.8126 197.928 12.9821L197.928 12.9817Z" fill="white"/>
</svg>
