<svg width="169" height="37" viewBox="0 0 169 37" fill="none" xmlns="http://www.w3.org/2000/svg">
<g clip-path="url(#clip0_1_1023)">
<path d="M59.6535 21.2389L58.6462 24.0897H58.5622C58.3944 23.4469 58.0866 22.4687 57.5829 21.2948L52.1828 7.73989H46.8945V29.344H50.392V16.0126C50.392 15.1741 50.392 14.2239 50.3641 13.0501C50.3361 12.4632 50.2801 12.016 50.2521 11.6806H50.3361C50.504 12.5191 50.6998 13.1339 50.8397 13.5252L57.3311 29.2881H59.7934L66.2288 13.3855C66.3687 13.0221 66.5086 12.2955 66.6485 11.6806H66.7324C66.6485 13.2737 66.5925 14.699 66.5646 15.5654V29.2601H70.2859V7.684H65.1935L59.6535 21.2389ZM73.8114 13.7767H77.4488V29.2601H73.8114V13.7767ZM75.6581 7.23682C75.0425 7.23682 74.5389 7.46041 74.1192 7.85169C73.6995 8.24296 73.4757 8.74603 73.4757 9.3609C73.4757 9.94781 73.6995 10.4509 74.1192 10.8422C74.5389 11.2334 75.0425 11.4291 75.6581 11.4291C76.2737 11.4291 76.8053 11.2055 77.197 10.8422C77.6167 10.4509 77.8406 9.94781 77.8406 9.3609C77.8406 8.77398 77.6167 8.27091 77.197 7.85169C76.8333 7.46041 76.3016 7.23682 75.6581 7.23682ZM90.3477 13.637C89.6761 13.4972 88.9766 13.4134 88.3051 13.4134C86.6543 13.4134 85.1434 13.7767 83.8843 14.5034C82.6252 15.23 81.6179 16.2362 80.9743 17.4939C80.3028 18.7795 79.967 20.2607 79.967 21.9656C79.967 23.4469 80.3028 24.7604 80.9463 25.9622C81.5899 27.136 82.4853 28.0863 83.6884 28.7291C84.8356 29.3719 86.1786 29.7073 87.6896 29.7073C89.4243 29.7073 90.9073 29.344 92.0824 28.6732L92.1104 28.6452V25.2914L91.9705 25.4032C91.4389 25.7945 90.8233 26.1299 90.2078 26.3255C89.5642 26.5491 88.9767 26.6609 88.473 26.6609C87.018 26.6609 85.8709 26.2417 85.0594 25.3194C84.22 24.425 83.8003 23.1953 83.8003 21.6582C83.8003 20.0651 84.22 18.8074 85.0874 17.8851C85.9548 16.9628 87.102 16.4877 88.501 16.4877C89.6761 16.4877 90.8793 16.879 91.9705 17.6615L92.1104 17.7733V14.2239L92.0824 14.196C91.6068 14.0003 91.0752 13.7767 90.3477 13.637ZM102.351 13.5252C101.456 13.5252 100.616 13.8047 99.8889 14.3916C99.2733 14.8947 98.8536 15.6213 98.4899 16.4877H98.4619V13.7767H94.8245V29.2601H98.4619V21.3507C98.4619 20.0092 98.7417 18.8913 99.3573 18.0808C99.9728 17.2423 100.756 16.8231 101.708 16.8231C102.043 16.8231 102.379 16.9069 102.799 16.9628C103.191 17.0746 103.47 17.1864 103.666 17.3262L103.806 17.438V13.8047L103.722 13.7767C103.47 13.609 102.967 13.5252 102.351 13.5252ZM112.256 13.4414C109.71 13.4414 107.667 14.196 106.24 15.6772C104.785 17.1585 104.086 19.1987 104.086 21.77C104.086 24.1735 104.813 26.1299 106.212 27.5553C107.611 28.9527 109.514 29.6793 111.892 29.6793C114.383 29.6793 116.369 28.9247 117.796 27.4155C119.251 25.9063 119.951 23.894 119.951 21.4066C119.951 18.9472 119.279 16.9908 117.908 15.5654C116.593 14.1401 114.662 13.4414 112.256 13.4414ZM115.166 25.3473C114.495 26.2137 113.431 26.633 112.116 26.633C110.801 26.633 109.738 26.2137 108.982 25.2914C108.227 24.425 107.863 23.1674 107.863 21.5743C107.863 19.9254 108.255 18.6677 108.982 17.7733C109.738 16.879 110.773 16.4318 112.088 16.4318C113.375 16.4318 114.383 16.851 115.11 17.7174C115.838 18.5838 116.229 19.8415 116.229 21.4905C116.173 23.1674 115.866 24.4809 115.166 25.3473ZM128.065 20.2048C126.918 19.7297 126.19 19.3664 125.854 19.059C125.575 18.7795 125.435 18.3882 125.435 17.8851C125.435 17.4659 125.603 17.0467 126.022 16.7672C126.442 16.4877 126.918 16.348 127.617 16.348C128.233 16.348 128.876 16.4598 129.492 16.6275C130.107 16.7952 130.667 17.0467 131.115 17.3821L131.255 17.4939V14.0842L131.171 14.0562C130.751 13.8885 130.191 13.7208 129.52 13.5811C128.848 13.4693 128.233 13.4134 127.729 13.4134C125.994 13.4134 124.567 13.8326 123.448 14.7549C122.329 15.6213 121.797 16.7952 121.797 18.1646C121.797 18.8913 121.909 19.5341 122.161 20.0651C122.413 20.5961 122.777 21.0992 123.28 21.5184C123.784 21.9097 124.511 22.3569 125.519 22.7761C126.358 23.1394 127.002 23.4189 127.393 23.6425C127.785 23.8661 128.037 24.1176 128.233 24.3133C128.373 24.5368 128.457 24.8163 128.457 25.1796C128.457 26.2137 127.673 26.7168 126.078 26.7168C125.463 26.7168 124.819 26.605 124.064 26.3535C123.308 26.1019 122.609 25.7386 122.021 25.3194L121.881 25.2076V28.757L121.965 28.785C122.497 29.0365 123.14 29.2042 123.924 29.3998C124.707 29.5396 125.407 29.6514 126.022 29.6514C127.897 29.6514 129.436 29.2322 130.527 28.3099C131.646 27.4155 132.234 26.2696 132.234 24.7884C132.234 23.7543 131.954 22.832 131.339 22.1333C130.527 21.4625 129.52 20.7638 128.065 20.2048ZM141.831 13.4414C139.285 13.4414 137.242 14.196 135.815 15.6772C134.388 17.1585 133.661 19.1987 133.661 21.77C133.661 24.1735 134.388 26.1299 135.787 27.5553C137.186 28.9527 139.089 29.6793 141.467 29.6793C143.958 29.6793 145.944 28.9247 147.371 27.4155C148.826 25.9063 149.526 23.894 149.526 21.4066C149.526 18.9472 148.854 16.9908 147.483 15.5654C146.168 14.1401 144.237 13.4414 141.831 13.4414ZM144.713 25.3473C144.042 26.2137 142.978 26.633 141.663 26.633C140.32 26.633 139.285 26.2137 138.529 25.2914C137.774 24.425 137.41 23.1674 137.41 21.5743C137.41 19.9254 137.802 18.6677 138.529 17.7733C139.285 16.879 140.32 16.4318 141.635 16.4318C142.894 16.4318 143.93 16.851 144.657 17.7174C145.385 18.5838 145.776 19.8415 145.776 21.4905C145.776 23.1674 145.413 24.4809 144.713 25.3473ZM168.972 16.7672V13.7767H165.306V9.19321L165.195 9.22115L161.725 10.2552L161.641 10.2832V13.7767H156.157V11.8203C156.157 10.926 156.381 10.2273 156.772 9.78012C157.164 9.33295 157.752 9.10936 158.479 9.10936C158.983 9.10936 159.515 9.22115 160.102 9.47269L160.242 9.55653V6.39837L160.158 6.37043C159.654 6.20274 158.983 6.09094 158.116 6.09094C157.024 6.09094 156.073 6.34248 155.206 6.7617C154.338 7.23682 153.695 7.87964 153.219 8.74603C152.743 9.58448 152.492 10.5347 152.492 11.6247V13.7767H149.945V16.7393H152.492V29.2601H156.157V16.7672H161.641V24.7325C161.641 28.0024 163.18 29.6514 166.258 29.6514C166.761 29.6514 167.293 29.5675 167.797 29.4837C168.328 29.3719 168.72 29.2322 168.944 29.1204L168.972 29.0924V26.1019L168.832 26.2137C168.608 26.3535 168.412 26.4653 168.076 26.5491C167.797 26.633 167.545 26.6609 167.349 26.6609C166.622 26.6609 166.118 26.4932 165.754 26.074C165.418 25.6827 165.25 25.0399 165.25 24.0897V16.7672H168.972Z" fill="white"/>
<path d="M0 0.473389H17.1518V17.6057H0V0.473389Z" fill="white"/>
<path d="M18.9424 0.473389H36.0942V17.6057H18.9424V0.473389Z" fill="white"/>
<path d="M0 19.3944H17.1518V36.5267H0V19.3944Z" fill="white"/>
<path d="M18.9424 19.3944H36.0942V36.5267H18.9424V19.3944Z" fill="white"/>
</g>
<defs>
<clipPath id="clip0_1_1023">
<rect width="169" height="36.0533" fill="white" transform="translate(0 0.473389)"/>
</clipPath>
</defs>
</svg>
