<svg width="149" height="21" viewBox="0 0 149 21" fill="none" xmlns="http://www.w3.org/2000/svg">
<g clip-path="url(#clip0_1_975)">
<path d="M80.3204 0.140015H79.0198L69.9245 15.6644L60.7485 0.140015H59.4838L55.9497 20.8243H59.421L61.5378 7.80382L69.2518 20.8243H70.5883L78.2035 7.91114L80.3204 20.8243H83.8275L80.3204 0.140015Z" fill="white"/>
<path d="M101.615 2.322C100.632 1.3575 99.3825 0.706829 98.0269 0.453001C96.1853 0.192469 94.3247 0.0907431 92.4656 0.148953H87.1646V20.8242H90.7524V11.667H91.8378C93.8829 11.731 95.9298 11.6173 97.9551 11.3272C99.3678 11.0893 100.677 10.4353 101.713 9.44925C102.168 8.97265 102.524 8.41146 102.761 7.79771C102.998 7.18396 103.111 6.52967 103.095 5.87222C103.104 5.21483 102.985 4.56195 102.745 3.94956C102.481 3.33712 102.097 2.78367 101.615 2.322ZM99.4261 5.89904C99.4243 6.46973 99.2318 7.02355 98.879 7.47294C98.4851 7.94611 97.9565 8.2891 97.3631 8.45663C96.2781 8.72297 95.1607 8.83437 94.0443 8.7875H90.6717V3.06424H94.2596C95.3393 3.01971 96.4201 3.12505 97.4707 3.37723C98.0298 3.54943 98.5217 3.88993 98.879 4.35197C99.2267 4.79038 99.4191 5.33122 99.4261 5.8901V5.89904Z" fill="white"/>
<path d="M106.207 0.140015V20.8243H109.741V0.140015H106.207Z" fill="white"/>
<path d="M39.5801 0.140015V20.8153H54.1379V17.9H43.1141V11.6402H54.2276V8.74279H43.1231V8.24201V3.06424H54.2455V0.140015H39.5801Z" fill="white"/>
<path d="M133.834 0.140015V20.8153H148.392V17.9H137.368V11.6402H148.49V8.74279H137.377V8.24201V3.06424H148.49V0.140015H133.834Z" fill="white"/>
<path d="M131.824 20.8332L124.649 11.0679L124.873 11.0232C125.834 10.7084 126.709 10.1758 127.429 9.46716C127.885 8.99171 128.242 8.43071 128.48 7.81668C128.717 7.20266 128.829 6.54782 128.811 5.89012C128.83 5.23485 128.71 4.58289 128.461 3.97641C128.22 3.36699 127.857 2.81312 127.393 2.34885C126.414 1.37603 125.164 0.71871 123.806 0.461966C121.95 0.192786 120.074 0.0850685 118.199 0.140032H112.925V20.8421H116.459V11.6849H117.545C118.738 11.6849 119.769 11.6849 120.666 11.6313L127.438 20.8332H131.824ZM116.459 8.76964V3.09109H120.047C121.124 3.04139 122.203 3.14681 123.249 3.40408C123.812 3.57517 124.307 3.9157 124.667 4.37882C125.016 4.81569 125.206 5.35817 125.205 5.91695C125.208 6.48421 125.018 7.03577 124.667 7.48191C124.289 7.95794 123.771 8.30486 123.187 8.47453C122.101 8.73552 120.984 8.84388 119.868 8.79647L116.459 8.76964Z" fill="white"/>
<path d="M5.15448 12.0873H18.2861L19.8558 10.0574L18.4924 8.26884H5.15448V6.73965V3.99427H15.0211L14.6085 3.29675L12.1957 0.140015H0.490234V20.86H5.16345V14.001L5.15448 12.0873Z" fill="white"/>
<path d="M33.1846 14.6896L30.1618 10.8711L27.5337 14.2514L32.7092 20.8779H38.0103L33.1846 14.6896Z" fill="white"/>
<path d="M37.517 0.140015H32.2249L27.5068 6.17627L30.1529 9.5834L37.517 0.140015Z" fill="white"/>
<path d="M24.3048 4.84382L20.6362 0.140015H15.3441L23.1836 10.1826L14.8418 20.86H20.1698L25.8386 13.5539L28.4668 10.1736L24.3048 4.84382Z" fill="white"/>
</g>
<defs>
<clipPath id="clip0_1_975">
<rect width="148" height="20.72" fill="white" transform="translate(0.490234 0.140015)"/>
</clipPath>
</defs>
</svg>
