<svg width="149" height="31" viewBox="0 0 149 31" fill="none" xmlns="http://www.w3.org/2000/svg">
<path fill-rule="evenodd" clip-rule="evenodd" d="M3.94412 13.3572H7.70042C10.8933 13.3572 12.3958 14.1646 12.3958 16.4627C12.3958 19.3197 9.57857 19.6923 7.57521 19.6923H3.94412V13.3572ZM0 23.0462H7.95084C12.1454 23.0462 16.2773 21.5556 16.2773 16.7732C16.2773 13.9783 14.2739 11.8044 11.5193 11.4939V11.4318C13.7731 10.7486 15.3382 9.13374 15.3382 6.64937C15.3382 2.67437 11.895 1.12163 8.57689 1.12163H0V23.0462ZM3.94412 4.47554H7.19958C10.142 4.47554 11.4567 5.40718 11.4567 7.27046C11.4567 8.88531 10.142 10.0033 7.5126 10.0033H3.94412V4.47554ZM18.8441 23.0462H22.6004V0.624756H18.8441V23.0462ZM25.1046 15.5931C25.1046 20.2513 28.7357 23.3568 33.2433 23.3568C37.7508 23.3568 41.3819 20.2513 41.3819 15.5931C41.3819 10.9349 37.7508 7.82945 33.2433 7.82945C28.6731 7.82945 25.1046 10.9349 25.1046 15.5931ZM28.7983 15.5931C28.7983 13.2951 30.4261 11.1212 33.1807 11.1212C35.9353 11.1212 37.563 13.233 37.563 15.5931C37.563 17.9533 35.9353 20.065 33.1807 20.065C30.4887 20.065 28.7983 17.9533 28.7983 15.5931ZM43.0097 15.5931C43.0097 20.2513 46.6408 23.3568 51.1483 23.3568C55.6559 23.3568 59.287 20.2513 59.287 15.5931C59.287 10.9349 55.6559 7.82945 51.1483 7.82945C46.6408 7.82945 43.0097 10.9349 43.0097 15.5931ZM46.766 15.5931C46.766 13.2951 48.3937 11.1212 51.1483 11.1212C53.9029 11.1212 55.5307 13.233 55.5307 15.5931C55.5307 17.9533 53.9029 20.065 51.1483 20.065C48.3937 20.065 46.766 17.9533 46.766 15.5931ZM61.6034 8.2021H65.1718V10.5001H65.2345C65.8605 9.13374 67.3004 7.82945 69.8046 7.82945C72.121 7.82945 73.6861 8.69898 74.5 10.5623C75.5643 8.69898 77.192 7.82945 79.4458 7.82945C83.4525 7.82945 84.8298 10.6244 84.8298 14.1646V22.9841H81.0735V14.5994C81.0735 12.7361 80.5101 11.1212 78.3189 11.1212C76.0025 11.1212 75.1261 13.0466 75.1261 14.972V22.9841H71.3697V14.1646C71.3697 12.3634 70.6185 11.1212 68.8029 11.1212C66.3613 11.1212 65.3597 12.9224 65.3597 14.9099V22.9841H61.6034V8.2021ZM87.7723 23.0462H91.3408V20.8103H91.4034C92.4676 22.6115 94.471 23.4189 96.537 23.4189C101.17 23.4189 103.924 20.0029 103.924 15.6552C103.924 11.2455 100.982 7.89155 96.7248 7.89155C93.9076 7.89155 92.405 9.19585 91.6538 10.1275H91.5912V0.624756H87.8349L87.7723 23.0462ZM100.168 15.5931C100.168 17.8912 98.5403 20.065 95.7857 20.065C93.0311 20.065 91.4034 17.9533 91.4034 15.5931C91.4034 13.2951 93.0311 11.1212 95.7857 11.1212C98.5403 11.1834 100.168 13.2951 100.168 15.5931ZM120.765 16.8974V15.9037C120.765 10.7486 117.948 7.82945 113.753 7.82945C109.246 7.82945 105.615 10.9349 105.615 15.5931C105.615 20.2513 109.246 23.3568 113.753 23.3568C116.132 23.3568 118.324 22.5494 120.076 20.3755L117.384 18.388C116.445 19.506 115.256 20.3755 113.378 20.3755C111.312 20.3755 109.621 19.0712 109.371 16.8353C109.371 16.8974 120.765 16.8974 120.765 16.8974ZM109.371 14.1025C109.621 11.9908 110.999 10.5623 113.253 10.5623C115.569 10.5623 117.009 11.9287 117.071 14.1025H109.371ZM123.207 8.2021H126.963V10.5623H127.026C127.839 8.88531 129.467 7.82945 131.471 7.82945C131.909 7.82945 132.347 7.95366 132.785 8.01577V11.6181C132.159 11.4939 131.596 11.3697 130.97 11.3697C127.464 11.3697 126.963 14.2888 126.963 15.0962V23.0462H123.207V8.2021ZM145.494 8.2021V10.438H145.432C144.367 8.63687 142.364 7.82945 140.298 7.82945C135.665 7.82945 132.911 11.2455 132.911 15.5931C132.911 19.8166 135.853 23.1705 140.361 23.1705C142.239 23.1705 144.179 22.4873 145.244 20.9966H145.306V22.0525C145.306 24.9716 144.179 27.0212 140.548 27.0212C138.482 27.0212 136.917 26.2759 135.415 24.9095L133.161 27.9529C135.289 29.8162 137.794 30.3752 140.548 30.3752C146.371 30.3752 149 26.9591 149 21.6177V8.2021H145.494ZM141.112 11.1834C143.804 11.1834 145.557 12.9845 145.557 15.531C145.557 18.0154 143.866 19.8787 141.112 19.8787C138.608 19.8787 136.729 17.9533 136.729 15.5931C136.667 12.9224 138.482 11.1834 141.112 11.1834Z" fill="white"/>
</svg>
