<svg width="177" height="25" viewBox="0 0 177 25" fill="none" xmlns="http://www.w3.org/2000/svg">
<g clip-path="url(#clip0_1_990)">
<path d="M13.8189 19.1595H7.15946V8.69462H0.5V2.03516H13.8189V19.1595ZM27.1378 19.1595H19.527L26.6622 2.03516H34.273L27.1378 19.1595Z" fill="white"/>
<path d="M19.5271 9.64597C21.6287 9.64597 23.3325 7.94223 23.3325 5.84056C23.3325 3.73889 21.6287 2.03516 19.5271 2.03516C17.4255 2.03516 15.7217 3.73889 15.7217 5.84056C15.7217 7.94223 17.4255 9.64597 19.5271 9.64597Z" fill="white"/>
<path d="M42.1624 19.1823H45.6843V5.38295H50.2917V2.05417H37.6025V5.3839H42.1624V19.1823ZM50.2964 19.1823H53.6014V13.4171C53.6014 11.4145 54.6384 10.2082 56.2081 10.2082C56.7618 10.2082 57.1966 10.3043 57.7027 10.4736V7.12011C57.3424 7.01592 56.9683 6.96717 56.5934 6.97551C55.2425 6.97551 54.0124 7.86788 53.6014 9.04945V7.12107H50.2964V19.1823ZM64.0463 19.4477C65.7112 19.4477 66.965 18.6029 67.5206 17.8304V19.1813H70.8256V7.12107H67.5206V8.47198C66.965 7.70044 65.7112 6.85564 64.0463 6.85564C60.8383 6.85564 58.3772 9.7506 58.3772 13.1517C58.3772 16.5537 60.8383 19.4487 64.0472 19.4487L64.0463 19.4477ZM64.7465 16.4319C62.9123 16.4319 61.706 15.0572 61.706 13.1517C61.706 11.2452 62.9123 9.86952 64.7465 9.86952C66.5797 9.86952 67.7861 11.2452 67.7861 13.1517C67.7861 15.0572 66.5797 16.4319 64.7465 16.4319ZM78.6943 19.4477C80.3591 19.4477 81.613 18.6029 82.1676 17.8304V19.1813H85.4726V1.09045H82.1676V8.47294C81.613 7.70044 80.3591 6.85564 78.6943 6.85564C75.4853 6.85564 73.0242 9.7506 73.0242 13.1517C73.0242 16.5537 75.4853 19.4487 78.6943 19.4487V19.4477ZM79.3935 16.4319C77.5602 16.4319 76.3539 15.0572 76.3539 13.1517C76.3539 11.2452 77.5602 9.86952 79.3935 9.86952C81.2267 9.86952 82.4331 11.2452 82.4331 13.1517C82.4331 15.0572 81.2267 16.4319 79.3935 16.4319ZM90.0848 5.28115C90.3622 5.28354 90.6374 5.23106 90.8945 5.12674C91.1515 5.02242 91.3855 4.86831 91.5828 4.67329C91.7802 4.47826 91.937 4.24615 92.0443 3.9903C92.1516 3.73446 92.2073 3.45991 92.2082 3.18247C92.2073 2.90503 92.1516 2.63049 92.0443 2.37464C91.937 2.11879 91.7802 1.88668 91.5828 1.69166C91.3855 1.49663 91.1515 1.34252 90.8945 1.23821C90.6374 1.13388 90.3622 1.08141 90.0848 1.08379C89.5296 1.08826 88.9983 1.31081 88.6057 1.70343C88.2131 2.09604 87.9906 2.62725 87.9861 3.18247C87.9906 3.73769 88.2131 4.26891 88.6057 4.66152C88.9983 5.05413 89.5296 5.27668 90.0848 5.28115ZM88.4446 19.1823H91.7496V7.25806H88.4446V19.1823ZM94.6817 19.1823H97.9867V13.2963C97.9867 10.9797 99.1207 9.87047 100.665 9.87047C102.039 9.87047 102.788 10.9322 102.788 12.6684V19.1823H106.093V12.1138C106.093 8.9781 104.356 6.85469 101.437 6.85469C99.8685 6.85469 98.6384 7.53015 97.9867 8.49482V7.12011H94.6817V19.1823ZM114.503 15.9724C112.838 15.9724 111.44 14.7176 111.44 12.8844C111.44 11.0273 112.838 9.79627 114.503 9.79627C116.168 9.79627 117.566 11.0273 117.566 12.8844C117.566 14.7176 116.168 15.9724 114.503 15.9724ZM114.117 24.3919C117.808 24.3919 120.607 22.5101 120.607 18.1672V7.04686H117.302V8.39778C116.65 7.45784 115.347 6.78238 113.804 6.78238C110.643 6.78238 108.11 9.48422 108.11 12.8853C108.11 16.2626 110.643 18.9644 113.804 18.9644C115.348 18.9644 116.65 18.2652 117.302 17.3728V18.1929C117.302 20.1232 116.023 21.4979 114.069 21.4979C112.718 21.4979 111.367 21.0393 110.306 20.0024L108.496 22.4626C109.871 23.7897 112.018 24.3919 114.117 24.3919ZM127.595 19.1823H130.706L137.799 2.05417H133.939L129.162 13.947L124.313 2.05417H120.526L127.595 19.1823ZM140.832 5.14226C141.11 5.14451 141.384 5.09195 141.641 4.98757C141.898 4.88319 142.132 4.72906 142.329 4.53405C142.526 4.33903 142.683 4.10697 142.791 3.85118C142.898 3.5954 142.953 3.32094 142.954 3.04357C142.953 2.76621 142.898 2.49175 142.791 2.23597C142.683 1.98018 142.526 1.74812 142.329 1.5531C142.132 1.35808 141.898 1.20396 141.641 1.09958C141.384 0.995206 141.11 0.942636 140.832 0.944894C139.698 0.944894 138.732 1.88483 138.732 3.04357C138.732 4.20137 139.698 5.14226 140.832 5.14226ZM139.191 19.1823H142.496V7.12011H139.191V19.1823ZM151.049 19.4477C153.582 19.4477 155.512 18.386 156.646 16.7459L154.185 14.9126C153.63 15.7565 152.593 16.4319 151.073 16.4319C149.481 16.4319 148.058 15.5396 147.865 13.9232H156.887C156.959 13.4162 156.935 13.0784 156.935 12.7892C156.935 8.85728 154.161 6.85469 151.001 6.85469C147.334 6.85469 144.656 9.58031 144.656 13.1507C144.656 16.9628 147.455 19.4477 151.049 19.4477ZM147.985 11.6799C148.299 10.2082 149.674 9.58031 150.905 9.58031C152.135 9.58031 153.341 10.232 153.63 11.6799H147.985ZM169.317 19.1823H172.598L176.579 7.12011H173.032L170.765 14.8394L168.304 7.12011H165.771L163.335 14.8394L161.043 7.12011H157.52L161.526 19.1823H164.806L167.05 12.3307L169.317 19.1823Z" fill="white"/>
</g>
<defs>
<clipPath id="clip0_1_990">
<rect width="176" height="24.7351" fill="white" transform="translate(0.5 0.132446)"/>
</clipPath>
</defs>
</svg>
