<svg width="201" height="27" viewBox="0 0 201 27" fill="none" xmlns="http://www.w3.org/2000/svg">
<path d="M15.4735 3.16555C15.4735 1.02437 13.3975 0.5 11.7633 0.5V0.805882C12.735 0.805882 13.4859 1.11176 13.4859 1.89832C13.4859 2.33529 13.1767 2.99076 12.1608 2.99076C11.4099 2.99076 9.77562 2.55378 8.58304 2.11681C7.16961 1.59244 5.88869 1.15546 4.78445 1.15546C2.62014 1.15546 1.0742 2.77227 1.0742 4.60756C1.0742 6.22437 2.26678 6.74874 2.70848 6.96723L2.79682 6.74874C2.57597 6.53025 2.26678 6.31176 2.26678 5.6563C2.26678 5.21933 2.70848 4.47647 3.76855 4.47647C4.74028 4.47647 6.06537 4.91345 7.78799 5.43782C9.28975 5.87479 10.924 6.18067 11.8074 6.31176V9.63277L10.1731 11.0311V11.1185L11.8074 12.5168V17.1487C10.924 17.6731 9.9523 17.8042 9.11307 17.8042C7.4788 17.8042 6.06537 17.3672 4.87279 16.1L9.33392 13.9588V6.53025L3.9894 8.88992C4.4311 7.4916 5.62368 6.53025 6.81625 5.87479L6.68375 5.56891C3.41519 6.44286 0.5 9.45798 0.5 13.0849C0.5 17.3672 4.07774 20.6008 8.09717 20.6008C12.4258 20.6008 15.2527 17.1487 15.2527 13.6092H15.076C14.4134 15.0076 13.4417 16.2748 12.2491 16.9303V12.5168L13.9717 11.1185V11.0311L12.2491 9.63277V6.31176C13.8834 6.31176 15.4735 5.21933 15.4735 3.16555ZM6.0212 15.0076L4.69611 15.663C3.94523 14.7017 3.50353 13.3908 3.50353 11.5992C3.50353 10.8563 3.50353 9.98235 3.72438 9.32689L6.0212 8.36555V15.0076ZM17.5495 17.4983L16.136 18.5908L16.3569 18.8092L17.0194 18.2849L19.4046 20.4261L22.6731 18.2849L22.5848 18.0664L21.7014 18.5908L20.5972 17.4983V10.1571L21.4806 9.50168L23.3357 10.9874V17.542C23.3357 21.6059 22.4523 22.2613 20.6413 22.9168V23.2227C23.689 23.3101 26.5159 22.3487 26.5159 17.105V10.0697L27.4876 9.32689L27.2668 9.1084L26.3834 9.76387L23.6449 7.4916L20.5972 9.76387V0.936975H20.3763L16.5777 3.51513V3.73361C17.0194 3.9521 17.682 4.17059 17.682 5.35042L17.5495 17.4983ZM37.4258 16.3185L34.7314 18.3723L32.0371 16.2311V14.9202L37.1608 11.4681V11.3807L34.5106 7.4916L28.8569 10.5067V17.5857L27.7527 18.4597L27.9735 18.6782L28.9452 17.9353L32.6555 20.6008L37.5583 16.7118L37.4258 16.3185ZM31.9929 14.4832V9.1958L32.2138 9.1084L34.5989 12.8664L31.9929 14.4832ZM58.1855 2.2042C58.1855 1.89832 58.0972 1.54874 57.9647 1.24286H57.7438C57.4346 2.11681 56.9929 2.55378 55.8887 2.55378C54.917 2.55378 54.2544 2.02941 53.8127 1.59244L50.6767 5.13193L50.8975 5.35042L52.0018 4.38908C52.6643 4.91345 53.1943 5.35042 54.6961 5.48151V14.3958L48.2915 3.51513C47.7615 2.64118 46.9664 1.46134 45.4647 1.46134C43.7421 1.46134 42.1961 2.94706 42.417 5.35042H42.7262C42.8145 4.69496 43.1678 3.9521 43.9187 3.9521C44.4488 3.9521 45.023 4.47647 45.3322 5.04454V8.58403C43.3887 8.58403 42.0636 9.45798 42.0636 11.0748C42.0636 11.9487 42.5053 13.216 43.7862 13.5655V13.3471C43.5654 13.1286 43.477 12.9101 43.477 12.6042C43.477 12.0798 43.9187 11.6429 44.6696 11.6429H45.1996V16.1437C42.9028 16.1437 41.0919 17.4546 41.0919 19.5958C41.0919 21.6496 42.8145 22.6109 44.8021 22.4798V22.2613C43.6095 22.174 43.0795 21.6059 43.0795 20.863C43.0795 19.9017 43.7421 19.4647 44.5813 19.4647C45.4647 19.4647 46.2155 19.9891 46.7456 20.6445L49.8816 17.1924L49.6608 16.9739L48.9099 17.8479C47.7173 16.7555 47.0548 16.4496 45.6413 16.2311V5.43782L54.3869 20.4697H55.0495V5.43782C56.6396 5.35042 58.1855 4.0395 58.1855 2.2042ZM66.0919 16.3185L63.3975 18.3723L60.7032 16.2311V14.9202L65.8269 11.4681V11.3807L63.2209 7.4916L57.5671 10.5067V17.5857L56.4629 18.4597L56.6837 18.6782L57.6555 17.9353L61.3657 20.6008L66.2686 16.7118C66.2244 16.7118 66.0919 16.3185 66.0919 16.3185ZM60.659 14.4832V9.1958L60.8799 9.1084L63.265 12.8664C63.3092 12.8664 60.659 14.4832 60.659 14.4832ZM83.8039 8.67143L83.053 9.1958L80.977 7.4916L78.5919 9.63277L79.5636 10.5941V18.6345L76.9576 17.0176V10.3756L77.841 9.85126L75.3233 7.4916L72.9382 9.63277L73.9099 10.5941V18.3286L73.6007 18.5471L71.3039 16.9303V10.5067C71.3039 9.02101 70.553 8.58403 69.6696 8.01597C68.9187 7.4916 68.477 7.14202 68.477 6.39916C68.477 5.7437 69.1396 5.43782 69.4488 5.21933V5.00084C68.5654 5.00084 66.3127 5.87479 66.3127 7.88487C66.3127 8.97731 66.8428 9.37059 67.417 9.93866C67.947 10.463 68.5212 10.9 68.5212 11.8613V18.1101L67.3286 18.984L67.5495 19.2025L68.6537 18.3286L71.1714 20.4697L73.8657 18.6345L76.9134 20.4697L82.6555 17.1487V9.93866L84.0689 8.84622L83.8039 8.67143ZM104.034 2.77227L102.929 3.73361L100.544 1.59244L96.9664 4.17059V1.81092H96.6572L96.7456 19.2025C96.4364 19.2025 95.4205 18.984 94.6696 18.7655L94.4488 4.25798C94.4488 3.16555 93.6979 1.67983 91.7544 1.67983C89.811 1.67983 88.4859 3.16555 88.4859 4.69496H88.7951C88.8834 4.0395 89.2367 3.51513 89.8993 3.51513C90.5618 3.51513 91.0919 3.9521 91.0919 5.35042V9.54538C89.1484 9.63277 87.9558 10.7252 87.9558 12.1235C87.9558 12.9975 88.3975 14.2647 89.6784 14.2647V14.0462C89.2367 13.8277 89.1484 13.5218 89.1484 13.3034C89.1484 12.6479 89.6784 12.4294 90.5618 12.4294H91.0035V19.0714C89.3693 19.5958 88.7067 20.7756 88.7067 22.0866C88.7067 23.9219 90.1201 25.1891 92.2845 25.1891C93.7862 25.1891 95.1113 24.9706 96.3922 24.6647C97.4965 24.4462 98.9099 24.1403 99.5283 24.1403C100.412 24.1403 100.721 24.5773 100.721 25.1017C100.721 25.8445 100.412 26.1941 99.97 26.2815V26.5C101.693 26.1941 102.797 25.1017 102.797 23.4849C102.797 21.8681 101.163 20.9067 99.4399 20.9067C98.5565 20.9067 96.7456 21.2126 95.4205 21.4311C93.9187 21.737 92.3728 21.9555 91.9311 21.9555C91.1802 21.9555 90.2968 21.6496 90.2968 20.5571C90.2968 19.6832 91.0477 18.9403 92.9028 18.9403C93.8746 18.9403 95.0671 19.0277 96.2597 19.3773C97.5848 19.6832 98.7774 20.0328 99.8375 20.0328C101.472 20.0328 102.885 19.5084 102.885 17.2361V4.0395L104.21 2.94706L104.034 2.77227ZM99.5724 9.32689C99.2633 9.63277 98.8216 9.98235 98.2474 9.98235C97.6731 9.98235 97.1431 9.67647 96.9223 9.32689V4.56387L98.0265 3.82101L99.5283 5.21933C99.5724 5.21933 99.5724 9.32689 99.5724 9.32689ZM99.5724 12.5168C99.3516 12.2983 98.8216 11.9924 98.2474 11.9924C97.6731 11.9924 97.1431 12.2983 96.9223 12.5168V9.72017C97.1431 9.93866 97.6731 10.2445 98.2474 10.2445C98.8216 10.2445 99.3516 9.93866 99.5724 9.72017V12.5168ZM99.5724 17.5857C99.5724 18.4597 99.0424 19.2899 97.8498 19.2899H96.9664V12.9538C97.1873 12.7353 97.7173 12.4294 98.2915 12.4294C98.8657 12.4294 99.2633 12.7353 99.6166 12.9538C99.5724 12.9538 99.5724 17.5857 99.5724 17.5857ZM114.458 9.93866L110.968 7.4479L105.624 10.463V17.4546L104.519 18.3286L104.608 18.5471L105.491 17.8916L108.981 20.4697L114.413 17.2361C114.458 17.2798 114.458 9.93866 114.458 9.93866ZM108.583 16.7118V8.97731L111.277 10.9V18.5471C111.322 18.5471 108.583 16.7118 108.583 16.7118ZM124.793 7.71008H124.572C124.263 7.92857 123.91 8.14706 123.601 8.14706C123.159 8.14706 122.629 7.92857 122.408 7.62269H122.187L120.332 9.67647L118.477 7.62269L115.208 9.76387L115.297 9.98235L116.18 9.45798L117.284 10.6378V17.4109L115.871 18.5034L116.092 18.7218L116.754 18.1975L119.36 20.3387L122.717 18.0664L122.629 17.8479L121.657 18.3723L120.332 17.2798V9.76387C120.862 10.2882 121.525 10.8563 122.276 10.8563C123.777 10.9437 124.661 9.41429 124.793 7.71008ZM137.823 18.0227L134.113 20.5134L129.122 12.9975L132.7 7.53529H132.921C133.362 7.97227 134.025 8.40924 134.776 8.40924C135.527 8.40924 136.101 7.97227 136.41 7.53529H136.631C136.542 9.67647 134.996 10.9874 133.936 10.9874C132.832 10.9874 132.302 10.463 131.64 10.1134L131.33 10.6378L136.763 18.5908L137.867 17.9353V18.0227H137.823ZM125.853 17.4983L124.44 18.5908L124.661 18.8092L125.323 18.2849L127.708 20.4261L130.977 18.2849L130.756 18.0664L129.873 18.5908L128.769 17.4983V0.936975H128.68L124.749 3.51513V3.73361C125.191 3.9521 125.853 4.0395 125.853 5.35042V17.4983ZM155.845 3.16555C155.845 1.02437 153.769 0.5 152.134 0.5V0.805882C153.106 0.805882 153.857 1.11176 153.857 1.89832C153.857 2.33529 153.548 2.99076 152.532 2.99076C151.781 2.99076 150.147 2.55378 148.954 2.11681C147.541 1.67983 146.26 1.24286 145.155 1.24286C142.991 1.24286 141.445 2.85966 141.445 4.69496C141.445 6.31176 142.638 6.83613 143.08 7.05462L143.168 6.83613C142.859 6.61765 142.505 6.39916 142.505 5.7437C142.505 5.30672 142.947 4.56387 144.007 4.56387C144.979 4.56387 146.304 5.00084 148.027 5.52521C149.528 5.96218 151.163 6.26807 152.046 6.39916V9.72017L150.412 11.1185V11.2059L152.046 12.6042V17.2361C151.163 17.7605 150.191 17.8916 149.352 17.8916C147.717 17.8916 146.304 17.4546 145.111 16.1874L149.572 14.0462V6.53025L144.14 8.88992C144.67 7.4916 145.862 6.53025 146.966 5.7874L146.878 5.56891C143.61 6.44286 140.694 9.32689 140.694 12.9975C140.694 17.2798 144.272 20.5134 148.292 20.5134C152.62 20.5134 155.447 17.0613 155.447 13.5218H155.226C154.564 14.9202 153.592 16.1874 152.399 16.8429V12.4294L154.122 11.0311V10.9437L152.488 9.54538V6.31176C154.21 6.31176 155.845 5.21933 155.845 3.16555ZM146.392 15.0076L145.067 15.663C144.316 14.7017 143.875 13.3908 143.875 11.5992C143.875 10.8563 143.963 9.98235 144.184 9.32689L146.481 8.36555L146.392 15.0076ZM159.643 2.11681H159.511L157.346 3.9521V4.0395L159.201 6.09328H159.422L161.587 4.25798V4.17059L159.643 2.11681ZM162.912 18.0227L162.028 18.5471L160.924 17.4546V10.0261L162.028 9.28319L161.807 9.06471L161.057 9.72017L159.113 7.4479L155.977 9.58908L156.198 9.89496L156.949 9.37059L157.921 10.5504V17.542L156.507 18.6345L156.595 18.8529L157.346 18.3286L159.731 20.4697L163 18.3286L162.912 18.0227ZM181.021 17.8916L180.27 18.416L179.078 17.3235V10.0697L180.182 9.1958L179.961 8.97731L179.078 9.72017L176.56 7.4479L173.292 9.72017L170.774 7.4479L167.726 9.72017L165.783 7.4479L162.647 9.58908L162.735 9.89496L163.486 9.37059L164.59 10.5504V17.542L163.707 18.416L166.224 20.4697L168.61 18.3286L167.638 17.3672V10.0697L168.61 9.41429L170.244 10.9V17.3672L169.36 18.2412L171.878 20.295L174.263 18.1538L173.292 17.1924V10.0697L174.175 9.54538L175.898 11.0311V17.4983L175.147 18.2412L177.664 20.5134L181.021 18.2412V17.8916ZM190.474 16.3185L187.779 18.3723L185.085 16.2311V14.9202L190.208 11.4681V11.3807L187.602 7.4916L181.949 10.5067V17.8042L185.747 20.4697L190.65 16.5807C190.606 16.6244 190.474 16.3185 190.474 16.3185ZM185.041 14.4832V9.1958L185.261 9.1084L187.647 12.8664L185.041 14.4832ZM200.368 13.5218L198.292 11.905C199.705 10.7252 200.235 9.1084 200.235 8.01597V7.3605H200.014C199.793 7.88487 199.352 8.45294 198.512 8.45294C197.629 8.45294 197.099 8.01597 196.569 7.3605L191.666 10.0261V13.9151L193.521 15.3134C191.666 16.9303 191.357 17.979 191.357 18.8529C191.357 19.9454 191.887 20.6882 192.77 20.9941L192.859 20.7756C192.638 20.5571 192.417 20.4697 192.417 19.9017C192.417 19.5958 192.859 19.0277 193.742 19.0277C194.846 19.0277 195.465 19.7706 195.818 20.1202L200.5 17.3235V13.4345C200.5 13.5218 200.368 13.5218 200.368 13.5218ZM199.175 10.2882C198.424 11.5992 196.79 12.8664 195.818 13.5218L194.625 12.5605V8.80252C195.067 9.89496 196.26 10.7252 197.452 10.7252C198.203 10.7252 198.645 10.5941 199.175 10.2882ZM197.32 18.8966C196.79 17.7168 195.465 16.8429 194.184 16.8429C193.875 16.8429 192.991 16.8429 192.108 17.3672C192.638 16.4933 194.051 15.0076 195.906 13.9151L197.231 15.0076L197.32 18.8966Z" fill="white"/>
</svg>
