<svg width="140" height="131" viewBox="0 0 140 131" fill="none" xmlns="http://www.w3.org/2000/svg">
<path d="M-0.00169349 128.6C0.00970054 129.704 0.91432 130.59 2.01883 130.579C3.12334 130.567 4.00949 129.663 3.99809 128.558L-0.00169349 128.6ZM138.813 16.3902C139.581 15.5962 139.559 14.33 138.765 13.5622L125.825 1.04998C125.031 0.28217 123.765 0.303451 122.997 1.09751C122.23 1.89158 122.251 3.15773 123.045 3.92554L134.547 15.0475L123.425 26.5498C122.657 27.3438 122.679 28.61 123.473 29.3778C124.267 30.1456 125.533 30.1243 126.301 29.3303L138.813 16.3902ZM4.46752 118.96C4.58146 117.862 3.78318 116.879 2.6845 116.765C1.58583 116.651 0.602804 117.449 0.488861 118.548L4.46752 118.96ZM4.44704 98.8573C4.13227 99.916 4.73539 101.03 5.79416 101.344C6.85292 101.659 7.9664 101.056 8.28118 99.9972L4.44704 98.8573ZM15.3968 81.9967C15.8912 81.009 15.4912 79.8075 14.5034 79.3131C13.5156 78.8187 12.3141 79.2187 11.8198 80.2065L15.3968 81.9967ZM22.3489 63.1435C21.687 64.0278 21.8674 65.2812 22.7517 65.9431C23.6361 66.6049 24.8895 66.4245 25.5513 65.5402L22.3489 63.1435ZM38.4963 51.1603C39.3063 50.4093 39.3541 49.1438 38.6031 48.3339C37.8521 47.5239 36.5866 47.4761 35.7767 48.2271L38.4963 51.1603ZM51.6156 35.9455C50.6876 36.5446 50.421 37.7826 51.0201 38.7106C51.6192 39.6385 52.8572 39.9051 53.7852 39.306L51.6156 35.9455ZM70.8868 30.1398C71.8981 29.6955 72.3577 28.5156 71.9135 27.5043C71.4692 26.493 70.2893 26.0333 69.278 26.4776L70.8868 30.1398ZM88.0662 19.7701C87.0032 20.0705 86.3851 21.1757 86.6855 22.2387C86.9858 23.3016 88.091 23.9198 89.154 23.6194L88.0662 19.7701ZM108.21 19.4607C109.3 19.2871 110.044 18.262 109.87 17.1712C109.697 16.0804 108.672 15.3368 107.581 15.5104L108.21 19.4607ZM127.397 13.3772C126.294 13.443 125.454 14.3902 125.52 15.4928C125.585 16.5954 126.533 17.4359 127.635 17.3701L127.397 13.3772ZM3.99809 128.558C3.96753 125.595 4.1133 122.376 4.46752 118.96L0.488861 118.548C0.119809 122.106 -0.0339022 125.477 -0.00169349 128.6L3.99809 128.558ZM8.28118 99.9972C10.0274 94.1236 12.3649 88.0547 15.3968 81.9967L11.8198 80.2065C8.678 86.4841 6.25635 92.7716 4.44704 98.8573L8.28118 99.9972ZM25.5513 65.5402C29.2765 60.5628 33.5701 55.7279 38.4963 51.1603L35.7767 48.2271C30.6676 52.9643 26.2134 57.9799 22.3489 63.1435L25.5513 65.5402ZM53.7852 39.306C58.9754 35.9551 64.6626 32.8741 70.8868 30.1398L69.278 26.4776C62.8615 29.2964 56.9865 32.4779 51.6156 35.9455L53.7852 39.306ZM89.154 23.6194C95.1077 21.9369 101.452 20.5361 108.21 19.4607L107.581 15.5104C100.675 16.6094 94.1767 18.0433 88.0662 19.7701L89.154 23.6194ZM127.635 17.3701C130.815 17.1804 134.072 17.0558 137.409 16.9997L137.342 13.0003C133.949 13.0573 130.635 13.184 127.397 13.3772L127.635 17.3701Z" fill="url(#paint0_linear_52_9389)"/>
<defs>
<linearGradient id="paint0_linear_52_9389" x1="1.99414" y1="48.7038" x2="137.646" y2="49.319" gradientUnits="userSpaceOnUse">
<stop stop-color="#1AA72A"/>
<stop offset="1" stop-color="#69D645"/>
</linearGradient>
</defs>
</svg>
